<?xml version="1.0" encoding="utf-8"?>
<!-- Generator: Adobe Illustrator 16.0.4, SVG Export Plug-In . SVG Version: 6.00 Build 0)  -->
<!DOCTYPE svg PUBLIC "-//W3C//DTD SVG 1.1//EN" "http://www.w3.org/Graphics/SVG/1.1/DTD/svg11.dtd">
<svg version="1.1" id="Layer_1" xmlns="http://www.w3.org/2000/svg" xmlns:xlink="http://www.w3.org/1999/xlink" x="0px"
     y="0px"
     width="71.097px" height="15.936px" viewBox="0 0 71.097 15.936" enable-background="new 0 0 71.097 15.936"
     xml:space="preserve">
<path fill="#FFFFFF" d="M12.818,15.936H8.981L4.807,9.222l-1.428,1.024v5.689H0V0h3.379v7.293l1.33-1.876L9.025,0h3.75l-5.56,7.053
	L12.818,15.936z"/>
    <path fill="#FFFFFF" d="M18.148,15.936h-3.324V0h9.133v2.769h-5.809v4.109h5.406v2.758h-5.406V15.936z"/>
    <path fill="#FFFFFF" d="M38.854,0v10.164c0,1.159-0.259,2.177-0.779,3.051c-0.519,0.873-1.27,1.543-2.251,2.009
	c-0.981,0.466-2.141,0.699-3.48,0.699c-2.02,0-3.588-0.518-4.705-1.554c-1.118-1.035-1.676-2.451-1.676-4.248V0h3.319v9.616
	c0,1.21,0.244,2.099,0.73,2.664c0.487,0.565,1.293,0.849,2.417,0.849c1.089,0,1.879-0.284,2.37-0.854
	c0.49-0.568,0.736-1.463,0.736-2.68V0H38.854z"/>
    <path fill="#FFFFFF" d="M52.056,4.972c0,1.714-0.536,3.025-1.608,3.934c-1.072,0.908-2.596,1.363-4.572,1.363h-1.45v5.667h-3.378V0
	h5.09c1.933,0,3.402,0.417,4.409,1.248C51.553,2.08,52.056,3.321,52.056,4.972z M44.426,7.5h1.112c1.039,0,1.816-0.206,2.332-0.616
	s0.774-1.008,0.774-1.794c0-0.791-0.217-1.376-0.649-1.754s-1.11-0.567-2.033-0.567h-1.537V7.5z"/>
    <path fill="#FFFFFF" d="M60.809,15.936L56.972,3.435h-0.098c0.138,2.543,0.207,4.239,0.207,5.09v7.411h-3.019V0h4.599l3.771,12.186
	h0.065l4-12.186h4.6v15.936h-3.15V8.393c0-0.355,0.005-0.766,0.016-1.231c0.011-0.465,0.06-1.7,0.147-3.705h-0.098l-4.109,12.479
	H60.809z"/>
</svg>
