<?xml version="1.0" encoding="utf-8"?>
<!-- Generator: Adobe Illustrator 16.0.4, SVG Export Plug-In . SVG Version: 6.00 Build 0)  -->
<!DOCTYPE svg PUBLIC "-//W3C//DTD SVG 1.1//EN" "http://www.w3.org/Graphics/SVG/1.1/DTD/svg11.dtd">
<svg version="1.1" id="Layer_1" xmlns="http://www.w3.org/2000/svg" xmlns:xlink="http://www.w3.org/1999/xlink" x="0px"
     y="0px"
     width="283.464px" height="61.824px" viewBox="213.57 29.362 283.464 61.824"
     enable-background="new 213.57 29.362 283.464 61.824" xml:space="preserve">
<g>
	<g>
		<g>
			<path fill="#FFFFFF" d="M284.85,63.694h1.317v3.392h0.021l2.497-3.392h1.599l-2.747,3.689l2.961,4.073H288.9l-2.711-3.778h-0.021
				v3.778h-1.317L284.85,63.694L284.85,63.694z"/>
            <path fill="#FFFFFF"
                  d="M291.319,63.694h1.249v1.239h-1.249V63.694z M291.319,66.103h1.249v5.354h-1.249V66.103z"/>
            <path fill="#FFFFFF" d="M294.18,66.103h1.245v1.001h0.024c0.169-0.405,0.599-1.123,1.586-1.123c0.786,0,1.451,0.54,1.451,1.764
				v3.713h-1.249v-3.058c0-1.091-0.115-1.251-0.549-1.251c-0.844,0-1.263,1.149-1.263,1.992v2.316h-1.245V66.103L294.18,66.103z"/>
            <path fill="#FFFFFF" d="M304.122,71.829c0,1.565-0.934,2.16-2.553,2.16c-0.82,0-1.441-0.158-1.675-0.213v-1.228
				c0.303,0.169,0.875,0.471,1.651,0.471c1.238,0,1.383-0.861,1.383-1.562v-0.828h-0.02c-0.138,0.223-0.538,0.828-1.385,0.828
				c-1.428,0-1.833-1.374-1.833-2.802c0-1.417,0.562-2.675,1.833-2.675c0.898,0,1.202,0.494,1.385,0.766h0.02v-0.644h1.193V71.829
				L304.122,71.829z M301.939,70.49c0.723,0,0.99-1.067,0.99-1.835c0-0.708-0.212-1.707-0.99-1.707
				c-0.807,0-0.919,0.999-0.919,1.707C301.02,69.423,301.118,70.49,301.939,70.49z"/>
            <path fill="#FFFFFF" d="M309.028,63.694h4.389v1.002h-3.072v2.238h2.903v1.006h-2.903v3.517h-1.317V63.694z"/>
            <path fill="#FFFFFF" d="M317.108,70.841h-0.024c-0.167,0.349-0.539,0.742-1.394,0.742c-0.899,0-1.575-0.542-1.575-1.409
				c0-1.774,2.249-1.788,2.993-1.806v-0.534c0-0.524-0.135-0.979-0.754-0.979c-0.686,0-0.821,0.462-0.821,0.822h-1.216
				c0-1.025,0.676-1.697,2.038-1.697c1.329,0,1.946,0.569,1.946,1.661v3.815h-1.192V70.841z M315.992,70.705
				c0.812,0,1.116-0.877,1.116-1.607c-0.81,0-1.778,0.245-1.778,0.965C315.33,70.479,315.568,70.705,315.992,70.705z"/>
            <path fill="#FFFFFF" d="M319.797,63.694h1.248v3.409h0.024c0.169-0.405,0.596-1.123,1.585-1.123c0.788,0,1.448,0.54,1.448,1.764
				v3.712h-1.246v-3.057c0-1.091-0.114-1.251-0.552-1.251c-0.842,0-1.26,1.149-1.26,1.991v2.316h-1.248V63.694L319.797,63.694z"/>
            <path fill="#FFFFFF" d="M328.504,70.718h-0.021c-0.111,0.304-0.664,0.865-1.341,0.865c-1.428,0-1.834-1.308-1.834-2.805
				c0-1.551,0.554-2.798,1.834-2.798c0.798,0,1.182,0.494,1.341,0.766h0.021v-3.052h1.25v7.763h-1.25V70.718z M327.56,70.613
				c0.697,0,0.944-0.978,0.944-1.835c0-0.988-0.226-1.83-0.944-1.83c-0.823,0-0.924,0.943-0.924,1.83
				C326.635,69.623,326.77,70.613,327.56,70.613z"/>
            <path fill="#FFFFFF" d="M339.945,69.082c0,1.71-1.022,2.501-2.686,2.501c-1.599,0-2.702-0.791-2.702-2.501v-5.388h1.317v5.388
				c0,0.895,0.349,1.57,1.384,1.57c1.022,0,1.371-0.676,1.371-1.57v-5.388h1.315L339.945,69.082L339.945,69.082z"/>
            <path fill="#FFFFFF" d="M341.465,66.103h1.25v1.001h0.021c0.17-0.405,0.596-1.123,1.588-1.123c0.786,0,1.448,0.54,1.448,1.764
				v3.713h-1.246v-3.058c0-1.091-0.115-1.251-0.553-1.251c-0.842,0-1.258,1.149-1.258,1.992v2.316h-1.25V66.103z"/>
            <path fill="#FFFFFF"
                  d="M347.361,63.694h1.248v1.239h-1.248V63.694z M347.361,66.103h1.248v5.354h-1.248V66.103z"/>
            <path fill="#FFFFFF"
                  d="M349.431,66.103h1.306l1.191,3.668h0.023l1.203-3.668h1.304l-1.911,5.354h-1.214L349.431,66.103z"/>
            <path fill="#FFFFFF" d="M359.085,71.372c-0.45,0.143-0.923,0.211-1.495,0.211c-1.736,0-2.702-1.112-2.702-3.085
				c0-1.495,0.676-2.518,2.295-2.518c1.364,0,2.038,0.865,2.038,2.169v0.304h-3.173c0,0.746,0.506,2.252,2.011,2.252
				c0.394,0,0.799-0.124,1.026-0.201V71.372z M358.037,67.699c0-0.335-0.166-0.922-0.943-0.922c-0.732,0-0.979,0.606-1.012,0.922
				H358.037z"/>
            <path fill="#FFFFFF" d="M360.399,66.103h1.25v0.99h0.024c0.29-0.518,0.648-1.111,1.729-1.111v1.303
				c-1.259,0-1.755,0.531-1.755,1.825v2.349h-1.25L360.399,66.103L360.399,66.103z"/>
            <path fill="#FFFFFF" d="M367.154,67.238c-0.137-0.065-0.642-0.357-1.192-0.357c-0.385,0-0.836,0.179-0.836,0.49
				c0,0.711,2.354,1.067,2.354,2.605c0,1.102-0.845,1.606-2.024,1.606c-0.73,0-1.171-0.133-1.418-0.21v-1.082
				c0.358,0.154,0.854,0.323,1.361,0.323c0.304,0,0.92-0.053,0.92-0.483c0-0.629-2.306-1.155-2.306-2.575
				c0-1.005,0.768-1.574,1.923-1.574c0.534,0,0.959,0.132,1.219,0.201V67.238L367.154,67.238z"/>
            <path fill="#FFFFFF"
                  d="M368.601,63.694h1.252v1.239h-1.252V63.694z M368.601,66.103h1.252v5.354h-1.252V66.103z"/>
            <path fill="#FFFFFF" d="M374.623,71.49c-0.338,0.057-0.688,0.093-1.026,0.093c-1.415,0-1.644-0.676-1.644-1.477v-3.138h-1.044
				v-0.866h1.044v-1.273l1.252-0.754v2.027h1.586v0.865h-1.586v2.533c0,0.642,0.081,1.204,0.843,1.204
				c0.2,0,0.395-0.043,0.575-0.092V71.49L374.623,71.49z"/>
            <path fill="#FFFFFF" d="M376.815,71.53l-1.978-5.428h1.304l1.237,3.612h0.024l1.155-3.612h1.311l-2.668,7.765h-1.149
				L376.815,71.53z"/>
            <path fill="#FFFFFF" d="M383.622,68.778c0-1.754,0.821-2.798,2.36-2.798c1.545,0,2.366,1.044,2.366,2.798
				c0,1.756-0.821,2.805-2.366,2.805C384.443,71.583,383.622,70.534,383.622,68.778z M385.983,70.705
				c0.903,0,1.041-0.923,1.041-1.927c0-0.998-0.138-1.923-1.041-1.923c-0.897,0-1.032,0.925-1.032,1.923
				C384.95,69.782,385.085,70.705,385.983,70.705z"/>
            <path fill="#FFFFFF" d="M390.023,66.969h-0.976v-0.866h0.976v-0.731c0-1.136,0.733-1.801,2.194-1.801
				c0.429,0,0.959,0.048,1.248,0.11v0.959c-0.232-0.087-0.615-0.189-0.977-0.189c-1.032,0-1.218,0.661-1.218,1.28v0.372h1.579v0.865
				h-1.579v4.489h-1.248V66.969L390.023,66.969z"/>
            <path fill="#FFFFFF" d="M397.115,63.694h1.998c1.204,0,2.725,0.178,2.725,2.239c0,1.856-1.642,2.216-2.725,2.216h-0.684v3.308
				h-1.314V63.694z M398.43,67.216h0.684c0.79,0,1.386-0.394,1.386-1.282c0-1-0.52-1.305-1.386-1.305h-0.684V67.216z"/>
            <path fill="#FFFFFF" d="M406.149,71.372c-0.452,0.143-0.923,0.211-1.497,0.211c-1.732,0-2.701-1.112-2.701-3.085
				c0-1.495,0.673-2.518,2.297-2.518c1.361,0,2.036,0.865,2.036,2.169v0.304h-3.173c0,0.746,0.508,2.252,2.014,2.252
				c0.393,0,0.799-0.124,1.024-0.201V71.372L406.149,71.372z M405.101,67.699c0-0.335-0.168-0.922-0.94-0.922
				c-0.738,0-0.981,0.606-1.015,0.922H405.101z"/>
            <path fill="#FFFFFF" d="M410.648,71.49c-0.336,0.057-0.685,0.093-1.023,0.093c-1.416,0-1.643-0.676-1.643-1.477v-3.138h-1.049
				v-0.866h1.049v-1.273l1.252-0.754v2.027h1.587v0.865h-1.587v2.533c0,0.642,0.074,1.204,0.841,1.204
				c0.205,0,0.394-0.043,0.573-0.092V71.49L410.648,71.49z"/>
            <path fill="#FFFFFF" d="M411.627,66.103h1.25v0.99h0.021c0.291-0.518,0.657-1.111,1.732-1.111v1.303
				c-1.26,0-1.754,0.531-1.754,1.825v2.349h-1.25V66.103L411.627,66.103z"/>
            <path fill="#FFFFFF" d="M415.282,68.778c0-1.754,0.823-2.798,2.364-2.798s2.363,1.044,2.363,2.798
				c0,1.756-0.822,2.805-2.363,2.805S415.282,70.534,415.282,68.778z M417.647,70.705c0.902,0,1.035-0.923,1.035-1.927
				c0-0.998-0.133-1.923-1.035-1.923c-0.899,0-1.037,0.925-1.037,1.923C416.61,69.782,416.747,70.705,417.647,70.705z"/>
            <path fill="#FFFFFF" d="M421.292,63.694h1.249v7.763h-1.249V63.694z"/>
            <path fill="#FFFFFF" d="M428.021,71.372c-0.451,0.143-0.925,0.211-1.497,0.211c-1.733,0-2.698-1.112-2.698-3.085
				c0-1.495,0.67-2.518,2.293-2.518c1.359,0,2.038,0.865,2.038,2.169v0.304h-3.175c0,0.746,0.507,2.252,2.017,2.252
				c0.395,0,0.798-0.124,1.022-0.201V71.372z M426.974,67.699c0-0.335-0.165-0.922-0.943-0.922c-0.733,0-0.98,0.606-1.014,0.922
				H426.974z"/>
            <path fill="#FFFFFF" d="M432.41,70.451h-0.026c-0.167,0.41-0.605,1.132-1.585,1.132c-0.789,0-1.451-0.542-1.451-1.77v-3.711
				h1.248v3.061c0,1.093,0.117,1.25,0.552,1.25c0.832,0,1.263-1.138,1.263-1.995v-2.315h1.248v5.354h-1.248V70.451z"/>
            <path fill="#FFFFFF" d="M435.2,66.103h1.247v0.82h0.021c0.148-0.336,0.531-0.941,1.406-0.941c0.642,0,1.193,0.321,1.353,1.064
				h0.021c0.158-0.404,0.655-1.064,1.511-1.064c0.782,0,1.448,0.54,1.448,1.764v3.712h-1.248v-3.058c0-1.09-0.111-1.25-0.551-1.25
				c-0.719,0-1.081,1.148-1.081,1.991v2.316h-1.249v-3.058c0-1.09-0.113-1.25-0.551-1.25c-0.719,0-1.08,1.148-1.08,1.991v2.316
				h-1.246L435.2,66.103L435.2,66.103z"/>
            <path fill="#FFFFFF" d="M450.631,71.402c-0.435,0.112-0.874,0.181-1.313,0.181c-1.341,0-2.509-0.519-2.509-2.081
				c0-1.473,0.898-1.812,1.631-1.935v-0.022c-0.537-0.148-1.484-0.384-1.484-1.666c0-1.531,1.207-1.914,2.308-1.914
				c0.427,0,0.866,0.068,1.27,0.201v0.904c-0.2-0.116-0.601-0.294-1.126-0.294c-0.752,0-1.044,0.549-1.044,1.178
				c0,1.049,0.639,1.207,1.473,1.207h1.553v-2.364l1.249-0.743v3.107h1.418v0.798h-1.418v1.757c0,0.698,0.271,1.056,0.812,1.056
				c0.199,0,0.415-0.065,0.606-0.142v0.861c-0.292,0.07-0.594,0.093-0.902,0.093c-1.122,0-1.765-0.315-1.765-1.429v-2.196h-1.527
				c-0.889,0-1.642,0.059-1.642,1.509c0,0.97,0.594,1.304,1.316,1.304c0.507,0,0.843-0.142,1.097-0.267L450.631,71.402
				L450.631,71.402z"/>
            <path fill="#FFFFFF" d="M458.152,63.694h1.8l2.158,6.203h0.024l2.175-6.203h1.786v7.763h-1.205v-6.119h-0.02l-2.141,6.119h-1.217
				l-2.136-6.119h-0.024v6.119h-1.201V63.694L458.152,63.694z"/>
            <path fill="#FFFFFF"
                  d="M467.747,63.694h1.246v1.239h-1.246V63.694z M467.747,66.103h1.246v5.354h-1.246V66.103z"/>
            <path fill="#FFFFFF" d="M470.602,66.103h1.251v1.001h0.021c0.17-0.405,0.6-1.123,1.587-1.123c0.789,0,1.451,0.54,1.451,1.764
				v3.713h-1.247v-3.058c0-1.091-0.111-1.251-0.555-1.251c-0.842,0-1.258,1.149-1.258,1.992v2.316h-1.251V66.103L470.602,66.103z"/>
            <path fill="#FFFFFF" d="M480.315,71.372c-0.449,0.143-0.922,0.211-1.498,0.211c-1.733,0-2.694-1.112-2.694-3.085
				c0-1.495,0.673-2.518,2.291-2.518c1.36,0,2.038,0.865,2.038,2.169v0.304h-3.171c0,0.746,0.5,2.252,2.013,2.252
				c0.391,0,0.796-0.124,1.021-0.201V71.372L480.315,71.372z M479.269,67.699c0-0.335-0.167-0.922-0.946-0.922
				c-0.729,0-0.977,0.606-1.009,0.922H479.269z"/>
            <path fill="#FFFFFF" d="M481.631,66.103h1.251v0.99h0.021c0.291-0.518,0.65-1.111,1.732-1.111v1.303
				c-1.262,0-1.754,0.531-1.754,1.825v2.349h-1.251V66.103z"/>
            <path fill="#FFFFFF" d="M488.335,70.841h-0.021c-0.171,0.349-0.542,0.742-1.397,0.742c-0.899,0-1.572-0.542-1.572-1.409
				c0-1.774,2.251-1.788,2.99-1.806v-0.534c0-0.524-0.133-0.979-0.754-0.979c-0.684,0-0.819,0.462-0.819,0.822h-1.216
				c0-1.025,0.675-1.697,2.035-1.697c1.33,0,1.944,0.569,1.944,1.661v3.815h-1.19V70.841L488.335,70.841z M487.222,70.705
				c0.811,0,1.113-0.877,1.113-1.607c-0.809,0-1.777,0.245-1.777,0.965C486.559,70.479,486.796,70.705,487.222,70.705z"/>
            <path fill="#FFFFFF" d="M491.083,63.694h1.25v7.763h-1.25V63.694z"/>
            <path fill="#FFFFFF" d="M496.707,67.238c-0.134-0.065-0.642-0.357-1.191-0.357c-0.385,0-0.833,0.179-0.833,0.49
				c0,0.711,2.352,1.067,2.352,2.605c0,1.102-0.844,1.606-2.025,1.606c-0.73,0-1.171-0.133-1.419-0.21v-1.082
				c0.36,0.154,0.853,0.323,1.362,0.323c0.305,0,0.922-0.053,0.922-0.483c0-0.629-2.306-1.155-2.306-2.575
				c0-1.005,0.767-1.574,1.923-1.574c0.529,0,0.956,0.132,1.217,0.201L496.707,67.238L496.707,67.238z"/>
		</g>
        <path fill="#FFFFFF" d="M289.468,54.688c0,0.262-0.048,0.482-0.141,0.672c-0.094,0.188-0.218,0.347-0.377,0.467
			c-0.156,0.122-0.338,0.214-0.537,0.275c-0.201,0.06-0.41,0.089-0.619,0.089c-0.212,0-0.417-0.029-0.619-0.089
			c-0.203-0.062-0.38-0.154-0.536-0.275c-0.158-0.121-0.284-0.279-0.375-0.467c-0.097-0.19-0.145-0.41-0.145-0.672v-2.527h-1.271
			v2.527c0,0.456,0.086,0.851,0.25,1.195c0.167,0.349,0.387,0.642,0.66,0.871c0.274,0.234,0.592,0.413,0.947,0.529
			c0.354,0.124,0.715,0.183,1.088,0.183c0.365,0,0.726-0.059,1.078-0.183c0.356-0.116,0.675-0.295,0.951-0.529
			c0.275-0.229,0.5-0.522,0.668-0.871c0.17-0.344,0.256-0.739,0.256-1.195v-5.232h-1.276L289.468,54.688L289.468,54.688z
			 M287.608,48.56c0.1,0,0.189-0.018,0.275-0.058c0.088-0.033,0.156-0.083,0.224-0.149c0.062-0.058,0.113-0.133,0.146-0.218
			c0.036-0.078,0.054-0.173,0.054-0.272c0-0.098-0.018-0.188-0.054-0.269c-0.034-0.087-0.085-0.16-0.146-0.221
			c-0.067-0.066-0.136-0.114-0.224-0.148c-0.086-0.035-0.175-0.054-0.275-0.054c-0.19,0-0.354,0.067-0.488,0.2
			c-0.132,0.129-0.194,0.294-0.194,0.492s0.062,0.365,0.194,0.498C287.254,48.493,287.417,48.56,287.608,48.56z M297.135,52.049
			c-0.078-0.329-0.183-0.632-0.309-0.904c-0.125-0.272-0.285-0.519-0.479-0.739c-0.378-0.439-0.883-0.756-1.513-0.957
			c-0.63-0.2-1.425-0.295-2.385-0.292l0.011,1.261c0.757-0.003,1.372,0.057,1.841,0.194c0.474,0.142,0.835,0.348,1.089,0.631
			c0.214,0.255,0.373,0.593,0.477,1.01c0.108,0.421,0.172,0.933,0.208,1.528h-4.112v1.273h4.752c0.179,0,0.329-0.062,0.451-0.183
			c0.12-0.12,0.183-0.271,0.183-0.451c0-0.459-0.015-0.885-0.048-1.279C297.266,52.749,297.214,52.387,297.135,52.049z
			 M326.832,46.559h-1.261v7.199h-4.906v-3.979c0-0.086-0.018-0.166-0.049-0.242c-0.033-0.075-0.076-0.139-0.132-0.197
			c-0.061-0.054-0.128-0.102-0.201-0.131c-0.081-0.031-0.161-0.051-0.244-0.051c-0.366-0.009-0.734-0.014-1.104-0.021
			c-0.37-0.007-0.737-0.011-1.102-0.015c-0.38-0.014-0.74,0.056-1.075,0.221c-0.34,0.161-0.629,0.375-0.875,0.636
			c-0.246,0.261-0.441,0.559-0.583,0.888c-0.145,0.33-0.215,0.656-0.215,0.974v1.917h-5.809l0.982-1.519
			c0.26-0.399,0.392-0.793,0.392-1.167c0-0.289-0.059-0.553-0.175-0.792c-0.12-0.237-0.277-0.444-0.475-0.615
			c-0.201-0.169-0.434-0.306-0.7-0.398c-0.263-0.101-0.546-0.146-0.842-0.146h-1.607c-0.334,0-0.632,0.056-0.899,0.164
			c-0.27,0.108-0.499,0.25-0.69,0.429c-0.19,0.178-0.334,0.383-0.437,0.614c-0.104,0.233-0.154,0.47-0.154,0.717
			c0,0.191,0.026,0.387,0.087,0.582c0.061,0.201,0.16,0.403,0.295,0.613l0.988,1.519h-5.974v-7.199h-1.259v7.774
			c-0.011,0.019-0.015,0.04-0.015,0.061c0,0.182,0.062,0.333,0.188,0.452c0.124,0.125,0.276,0.185,0.445,0.185h26.782
			c0.174,0,0.323-0.059,0.449-0.185c0.123-0.118,0.188-0.271,0.188-0.452c0-0.021-0.006-0.042-0.013-0.061V46.559L326.832,46.559z
			 M307.767,53.758h-0.225l-1.435-2.206c-0.116-0.174-0.172-0.344-0.172-0.508c0-0.088,0.026-0.175,0.076-0.258
			c0.049-0.08,0.114-0.153,0.201-0.212c0.083-0.056,0.179-0.105,0.292-0.138c0.112-0.041,0.228-0.055,0.348-0.055h1.607
			c0.106,0,0.217,0.014,0.331,0.041c0.108,0.028,0.209,0.075,0.292,0.126c0.088,0.057,0.159,0.128,0.216,0.209
			c0.057,0.083,0.086,0.18,0.086,0.286c0,0.157-0.06,0.328-0.178,0.507L307.767,53.758z M319.394,53.758h-3.039v-1.921
			c0-0.186,0.043-0.365,0.125-0.539c0.08-0.172,0.188-0.325,0.325-0.459c0.137-0.135,0.29-0.246,0.465-0.33
			c0.172-0.085,0.35-0.126,0.532-0.126h0.052c0.021,0,0.096,0.007,0.219,0.014h0.238c0.102,0,0.209,0,0.328,0
			c0.118,0,0.242,0.006,0.371,0.007c0.126,0.004,0.255,0.006,0.384,0.006L319.394,53.758L319.394,53.758z M328.698,55.016h1.251
			v-8.458h-1.251V55.016z M337.248,49.973c0-0.118-0.021-0.23-0.066-0.334c-0.043-0.107-0.105-0.197-0.182-0.272
			c-0.074-0.077-0.164-0.137-0.267-0.18c-0.104-0.044-0.214-0.065-0.331-0.065h-1.925c-0.389,0-0.749,0.073-1.087,0.218
			c-0.335,0.144-0.631,0.344-0.88,0.594c-0.254,0.252-0.45,0.547-0.593,0.885c-0.144,0.338-0.215,0.695-0.215,1.073v2.305
			c0,0.203,0.085,0.366,0.258,0.492c0.174,0.124,0.398,0.218,0.668,0.285c0.273,0.063,0.572,0.107,0.896,0.123
			c0.332,0.012,0.644,0.019,0.955,0.005c0.309-0.012,0.584-0.034,0.834-0.066c0.245-0.034,0.428-0.064,0.541-0.106l-0.063,0.296
			c-0.097,0.288-0.204,0.552-0.325,0.802c-0.125,0.247-0.281,0.468-0.467,0.653c-0.193,0.192-0.423,0.34-0.691,0.448
			c-0.272,0.11-0.598,0.174-0.984,0.188v1.276c0.577-0.036,1.075-0.148,1.498-0.321c0.417-0.178,0.775-0.408,1.067-0.688
			c0.293-0.28,0.527-0.609,0.71-0.98c0.179-0.367,0.322-0.768,0.421-1.191c0.103-0.428,0.173-0.872,0.203-1.338
			c0.04-0.464,0.057-0.932,0.063-1.404c0.006-0.464-0.002-0.935-0.016-1.39C337.254,50.826,337.248,50.389,337.248,49.973z
			 M336.025,53.691c-0.258,0.056-0.52,0.09-0.779,0.117c-0.256,0.024-0.511,0.038-0.768,0.038h-0.068c-0.114,0-0.222,0-0.321-0.003
			c-0.098,0-0.205-0.01-0.313-0.019c-0.111-0.009-0.23-0.024-0.359-0.042c-0.125-0.019-0.277-0.052-0.446-0.09l-0.008-1.788
			c0-0.205,0.041-0.397,0.12-0.578c0.075-0.183,0.185-0.345,0.322-0.483c0.142-0.137,0.305-0.25,0.487-0.33
			c0.183-0.083,0.38-0.124,0.588-0.124l1.519,0.007c0,0.238,0.008,0.493,0.018,0.77c0.007,0.275,0.016,0.557,0.024,0.842
			c0.005,0.288,0.009,0.579,0.009,0.869C336.049,53.162,336.042,53.433,336.025,53.691z M346.205,54.693
			c0,0.257-0.045,0.478-0.14,0.667c-0.094,0.188-0.219,0.346-0.375,0.467c-0.157,0.122-0.338,0.214-0.535,0.275
			c-0.204,0.06-0.406,0.089-0.618,0.089c-0.207,0-0.416-0.03-0.617-0.089c-0.2-0.062-0.377-0.154-0.532-0.275
			c-0.157-0.121-0.277-0.279-0.374-0.467c-0.098-0.19-0.146-0.41-0.146-0.672v-2.526h-1.276v2.526c0,0.456,0.088,0.851,0.254,1.195
			c0.166,0.349,0.383,0.642,0.658,0.871c0.274,0.234,0.589,0.413,0.944,0.53c0.352,0.124,0.714,0.183,1.085,0.183
			c0.365,0,0.727-0.059,1.077-0.183c0.356-0.117,0.67-0.295,0.947-0.526s0.502-0.522,0.671-0.864
			c0.167-0.348,0.251-0.748,0.251-1.197v-8.138h-1.274L346.205,54.693L346.205,54.693z M354.329,49.973
			c0-0.118-0.023-0.23-0.07-0.334c-0.044-0.107-0.105-0.197-0.179-0.272c-0.074-0.077-0.167-0.137-0.27-0.18
			c-0.101-0.044-0.211-0.065-0.329-0.065h-1.927c-0.385,0-0.745,0.073-1.083,0.218c-0.338,0.144-0.63,0.344-0.883,0.594
			c-0.251,0.252-0.45,0.547-0.591,0.885c-0.144,0.338-0.219,0.695-0.219,1.073v2.305c0,0.203,0.088,0.366,0.263,0.492
			c0.173,0.124,0.395,0.218,0.667,0.285c0.271,0.063,0.567,0.107,0.897,0.123c0.325,0.012,0.643,0.019,0.953,0.005
			c0.308-0.012,0.583-0.034,0.834-0.066c0.244-0.034,0.425-0.064,0.539-0.106l-0.067,0.296c-0.094,0.288-0.199,0.552-0.32,0.802
			c-0.125,0.247-0.28,0.468-0.474,0.653c-0.188,0.192-0.42,0.34-0.688,0.448c-0.267,0.11-0.599,0.174-0.979,0.188v1.276
			c0.575-0.036,1.071-0.148,1.493-0.321c0.42-0.178,0.775-0.408,1.067-0.688c0.292-0.28,0.528-0.609,0.712-0.98
			c0.178-0.367,0.323-0.768,0.419-1.191c0.102-0.428,0.172-0.872,0.207-1.338c0.038-0.464,0.055-0.932,0.064-1.404
			c0-0.464-0.004-0.935-0.017-1.39C354.334,50.826,354.329,50.389,354.329,49.973z M353.102,53.691
			c-0.256,0.056-0.518,0.09-0.778,0.117c-0.254,0.024-0.511,0.038-0.767,0.038h-0.071c-0.114,0-0.222,0-0.319-0.003
			c-0.1,0-0.205-0.01-0.313-0.019c-0.115-0.009-0.236-0.024-0.363-0.042c-0.124-0.019-0.272-0.052-0.446-0.09l-0.007-1.788
			c0-0.205,0.043-0.397,0.118-0.578c0.078-0.183,0.186-0.345,0.328-0.483c0.135-0.137,0.299-0.25,0.484-0.33
			c0.184-0.083,0.381-0.124,0.589-0.124l1.517,0.007c0,0.238,0.006,0.493,0.017,0.77c0.01,0.275,0.017,0.557,0.026,0.842
			c0.007,0.288,0.009,0.579,0.009,0.869C353.127,53.162,353.12,53.433,353.102,53.691z M363.293,48.007
			c0.198,0,0.365-0.063,0.496-0.196c0.131-0.13,0.2-0.299,0.2-0.492c0-0.197-0.069-0.365-0.2-0.496
			c-0.131-0.135-0.298-0.2-0.496-0.2c-0.197,0-0.364,0.064-0.492,0.2c-0.136,0.131-0.198,0.298-0.198,0.496
			c0,0.193,0.062,0.361,0.198,0.492C362.929,47.944,363.096,48.007,363.293,48.007z M365.222,48.007c0.103,0,0.194-0.017,0.28-0.047
			c0.083-0.039,0.155-0.091,0.222-0.153c0.063-0.061,0.114-0.138,0.146-0.217c0.039-0.083,0.054-0.174,0.054-0.271
			c0-0.1-0.015-0.189-0.054-0.275c-0.032-0.083-0.083-0.158-0.146-0.221c-0.066-0.062-0.139-0.117-0.222-0.147
			c-0.086-0.038-0.178-0.052-0.28-0.052c-0.192,0-0.353,0.064-0.483,0.2c-0.138,0.131-0.201,0.298-0.201,0.496
			c0,0.193,0.063,0.361,0.201,0.492C364.869,47.944,365.03,48.007,365.222,48.007z M371.275,56.617
			c-0.062-0.066-0.137-0.11-0.22-0.144c-0.081-0.037-0.174-0.056-0.274-0.056c-0.098,0-0.191,0.019-0.271,0.056
			c-0.081,0.034-0.157,0.078-0.221,0.144c-0.061,0.063-0.111,0.137-0.147,0.223c-0.034,0.086-0.055,0.176-0.055,0.275
			c0,0.193,0.067,0.36,0.202,0.493c0.129,0.129,0.293,0.196,0.491,0.196c0.202,0,0.363-0.067,0.493-0.196
			c0.137-0.132,0.203-0.299,0.203-0.493c0-0.099-0.021-0.188-0.054-0.275C371.387,56.754,371.34,56.68,371.275,56.617z
			 M381.902,46.559h-1.26v7.199h-2.614v-7.199h-1.264v7.199h-5.2V49.36H370.3v4.398h-5.187V49.36h-1.263v4.398h-4.942
			c0.004-0.078,0.01-0.161,0.01-0.251c0.001-0.093,0.005-0.185,0.007-0.278c0-0.091,0.003-0.188,0.003-0.276
			c0.003-0.091,0.006-0.175,0.006-0.249c0-0.05-0.003-0.14-0.006-0.275c-0.001-0.138-0.003-0.295-0.01-0.475
			c-0.006-0.178-0.014-0.365-0.016-0.566c-0.006-0.204-0.014-0.391-0.018-0.562c-0.008-0.179-0.008-0.328-0.012-0.455
			c0-0.131-0.004-0.213-0.004-0.252h-1.271c0,0.156,0,0.317,0.007,0.486c0.007,0.169,0.017,0.344,0.028,0.522
			c0.005,0.242,0.014,0.484,0.019,0.744c0.004,0.25,0.007,0.509,0.007,0.768c0,0.365-0.009,0.728-0.03,1.092
			c-0.017,0.362-0.059,0.72-0.126,1.059c-0.063,0.339-0.158,0.662-0.279,0.961c-0.119,0.3-0.278,0.564-0.482,0.79
			c-0.199,0.226-0.45,0.405-0.74,0.542c-0.297,0.135-0.651,0.213-1.062,0.232v1.276c0.585-0.018,1.093-0.118,1.524-0.306
			c0.427-0.193,0.798-0.446,1.101-0.766c0.303-0.325,0.548-0.702,0.734-1.121c0.188-0.43,0.337-0.878,0.438-1.371h22.546
			c0.176,0,0.324-0.059,0.451-0.185c0.122-0.118,0.186-0.271,0.186-0.452c0-0.021-0.007-0.042-0.017-0.061L381.902,46.559
			L381.902,46.559z M414.464,49.659c-0.043-0.104-0.1-0.198-0.178-0.275c-0.074-0.083-0.164-0.146-0.266-0.193
			c-0.104-0.045-0.215-0.069-0.333-0.069h-1.91c-0.446,0-0.838,0.08-1.179,0.25c-0.336,0.164-0.621,0.388-0.848,0.664
			c-0.229,0.276-0.404,0.591-0.518,0.95c-0.118,0.352-0.179,0.716-0.179,1.095c0,0.252,0.035,0.524,0.103,0.808
			c0.069,0.284,0.175,0.568,0.32,0.869h-4.008c-0.086-0.004-0.177-0.011-0.274-0.011c-0.103,0-0.199-0.004-0.306-0.004h-0.552
			v-0.154c-0.056-0.6-0.165-1.126-0.329-1.581c-0.164-0.454-0.373-0.842-0.615-1.172c-0.243-0.329-0.511-0.603-0.817-0.819
			c-0.304-0.219-0.613-0.393-0.942-0.523c-0.325-0.13-0.657-0.214-0.988-0.27c-0.336-0.052-0.657-0.078-0.96-0.078
			c-0.19,0-0.37,0.004-0.547,0.021c-0.177,0.011-0.338,0.03-0.488,0.053c-0.329,0.074-0.651,0.218-0.955,0.428
			c-0.309,0.208-0.58,0.468-0.82,0.767c-0.233,0.308-0.426,0.642-0.568,1.018c-0.144,0.373-0.215,0.763-0.215,1.159
			c0,0.069,0.009,0.155,0.023,0.25c0.013,0.095,0.028,0.197,0.052,0.3c0.021,0.103,0.043,0.206,0.074,0.316
			c0.025,0.105,0.054,0.207,0.08,0.305l-3.832,0.004h-0.719c-0.037-0.763-0.131-1.423-0.284-1.975
			c-0.15-0.551-0.382-1.015-0.704-1.383c-0.193-0.217-0.414-0.404-0.66-0.566c-0.251-0.158-0.538-0.29-0.853-0.39
			c-0.32-0.103-0.674-0.173-1.07-0.228c-0.398-0.046-0.832-0.07-1.313-0.067c0,0.229,0,0.434,0.008,0.622
			c0.004,0.188,0.009,0.401,0.009,0.639c0.753-0.003,1.365,0.057,1.841,0.194c0.466,0.143,0.832,0.352,1.082,0.634
			c0.215,0.249,0.37,0.581,0.479,0.993c0.108,0.415,0.177,0.919,0.204,1.519h-4.105v1.265l6.087,0.007h21.417
			c0.177,0,0.323-0.059,0.444-0.185c0.124-0.122,0.185-0.271,0.185-0.452l-0.005-4.408C414.53,49.869,414.503,49.76,414.464,49.659z
			 M399.74,52.348c-0.087,0.246-0.207,0.47-0.354,0.662c-0.146,0.201-0.313,0.365-0.499,0.49c-0.189,0.129-0.372,0.208-0.565,0.229
			c-0.169-0.007-0.323-0.038-0.438-0.106c-0.126-0.07-0.225-0.156-0.302-0.262c-0.077-0.105-0.136-0.223-0.167-0.363
			c-0.035-0.135-0.056-0.277-0.056-0.425c0-0.064,0.008-0.13,0.012-0.192c0.009-0.063,0.017-0.122,0.023-0.175
			c0.059-0.243,0.145-0.478,0.269-0.705c0.123-0.227,0.258-0.424,0.416-0.59c0.156-0.163,0.318-0.285,0.484-0.362
			c0.168-0.08,0.328-0.088,0.476-0.041c0.265,0.104,0.468,0.247,0.601,0.43c0.133,0.182,0.211,0.4,0.235,0.664
			C399.874,51.858,399.828,52.106,399.74,52.348z M400.448,53.758c0.227-0.344,0.399-0.697,0.52-1.077
			c0.123-0.378,0.183-0.74,0.183-1.082c0-0.058-0.009-0.134-0.021-0.227c-0.02-0.093-0.035-0.185-0.056-0.283
			c-0.019-0.097-0.039-0.188-0.062-0.275c-0.022-0.087-0.035-0.155-0.055-0.209l0.296,0.112c0.236,0.085,0.462,0.2,0.672,0.35
			c0.214,0.146,0.4,0.341,0.56,0.58c0.161,0.242,0.296,0.533,0.401,0.881c0.106,0.344,0.175,0.753,0.199,1.23H400.448z
			 M413.266,53.758h-1.488c-0.175,0-0.335-0.029-0.477-0.075c-0.145-0.05-0.271-0.117-0.38-0.197
			c-0.109-0.086-0.208-0.188-0.287-0.302c-0.078-0.118-0.143-0.236-0.189-0.366c-0.047-0.122-0.081-0.245-0.098-0.368
			c-0.017-0.125-0.031-0.245-0.031-0.363c0-0.212,0.031-0.415,0.085-0.615c0.056-0.204,0.147-0.382,0.265-0.543
			c0.117-0.154,0.274-0.286,0.455-0.384c0.185-0.1,0.401-0.148,0.657-0.148h1.488V53.758L413.266,53.758z M412.182,48.007
			c0.195,0,0.36-0.063,0.493-0.196c0.139-0.13,0.203-0.299,0.203-0.492c0-0.197-0.064-0.365-0.203-0.496
			c-0.133-0.135-0.298-0.2-0.493-0.2c-0.198,0-0.363,0.064-0.492,0.2c-0.134,0.131-0.197,0.298-0.197,0.496
			c0,0.193,0.063,0.361,0.197,0.492C411.819,47.944,411.984,48.007,412.182,48.007z M424.278,49.321h-1.586
			c-0.205-0.01-0.355-0.068-0.445-0.175c-0.092-0.106-0.139-0.228-0.139-0.357c0-0.137,0.053-0.263,0.153-0.375
			c0.106-0.118,0.271-0.176,0.495-0.176l1.403,0.003v-0.918h-1.403c-0.26,0-0.484,0.042-0.679,0.126
			c-0.196,0.084-0.355,0.195-0.493,0.331c-0.131,0.139-0.23,0.292-0.3,0.468c-0.062,0.176-0.098,0.358-0.098,0.54
			c0,0.096,0.008,0.191,0.022,0.278c0.013,0.091,0.037,0.171,0.073,0.255h-0.478v0.923h3.474L424.278,49.321L424.278,49.321z
			 M449.61,46.559h-1.259v7.199h-4.903v-3.979c0-0.086-0.019-0.166-0.048-0.242c-0.036-0.075-0.077-0.139-0.137-0.197
			c-0.057-0.054-0.123-0.102-0.2-0.131c-0.076-0.031-0.159-0.051-0.242-0.051c-0.369-0.009-0.736-0.014-1.104-0.021
			c-0.371-0.007-0.738-0.011-1.107-0.015c-0.379-0.014-0.732,0.056-1.075,0.221c-0.334,0.161-0.626,0.375-0.871,0.636
			c-0.248,0.261-0.443,0.559-0.585,0.888c-0.148,0.33-0.215,0.656-0.215,0.974v1.917h-4.915v-7.199h-1.26v7.199h-5.12v-7.199h-1.262
			v7.204l-3.908,0.004c-0.305-0.004-0.557-0.047-0.748-0.121c-0.197-0.08-0.346-0.182-0.458-0.312
			c-0.109-0.126-0.188-0.279-0.226-0.448c-0.036-0.166-0.06-0.346-0.06-0.541c0-0.258,0.025-0.508,0.086-0.751
			c0.051-0.248,0.121-0.462,0.202-0.644c-0.104-0.054-0.198-0.1-0.288-0.147c-0.088-0.048-0.178-0.092-0.27-0.14
			c-0.089-0.044-0.179-0.093-0.268-0.144c-0.092-0.045-0.189-0.098-0.294-0.156c-0.124,0.251-0.226,0.554-0.307,0.895
			c-0.082,0.342-0.124,0.697-0.124,1.065c0,0.33,0.049,0.655,0.144,0.979c0.098,0.324,0.256,0.617,0.476,0.871
			c0.221,0.258,0.512,0.463,0.865,0.62c0.362,0.161,0.809,0.236,1.334,0.236h27.523c0.179,0,0.324-0.058,0.449-0.184
			c0.124-0.119,0.188-0.271,0.188-0.452c0-0.021-0.006-0.043-0.016-0.061V46.559z M442.174,53.758h-3.037v-1.921
			c0-0.186,0.042-0.365,0.122-0.539c0.079-0.172,0.189-0.325,0.325-0.459c0.135-0.135,0.293-0.246,0.462-0.33
			c0.177-0.085,0.356-0.126,0.534-0.126h0.052c0.024,0,0.099,0.007,0.217,0.014h0.239c0.107,0,0.216,0,0.331,0
			c0.118,0,0.243,0.006,0.372,0.007c0.126,0.004,0.257,0.006,0.383,0.006V53.758L442.174,53.758z M451.481,55.016h1.246v-8.458
			h-1.246V55.016z M461.588,48.007c0.095,0,0.185-0.017,0.273-0.047c0.083-0.039,0.156-0.091,0.221-0.153
			c0.062-0.061,0.113-0.138,0.146-0.217c0.038-0.083,0.052-0.174,0.052-0.271c0-0.1-0.014-0.189-0.052-0.275
			c-0.032-0.083-0.083-0.158-0.146-0.221c-0.064-0.062-0.138-0.117-0.221-0.147c-0.089-0.038-0.179-0.052-0.273-0.052
			c-0.2,0-0.363,0.064-0.493,0.2c-0.136,0.131-0.198,0.298-0.198,0.496c0,0.193,0.062,0.361,0.198,0.492
			C461.225,47.944,461.388,48.007,461.588,48.007z M459.634,48.007c0.096,0,0.191-0.017,0.275-0.047
			c0.081-0.039,0.157-0.091,0.225-0.153c0.063-0.061,0.11-0.138,0.147-0.217c0.035-0.083,0.054-0.174,0.054-0.271
			c0-0.1-0.019-0.189-0.054-0.275c-0.037-0.083-0.084-0.158-0.147-0.221c-0.067-0.062-0.143-0.117-0.225-0.147
			c-0.084-0.038-0.18-0.052-0.275-0.052c-0.195,0-0.357,0.064-0.487,0.2c-0.135,0.131-0.201,0.298-0.201,0.496
			c0,0.193,0.066,0.361,0.201,0.492C459.277,47.944,459.439,48.007,459.634,48.007z M483.237,49.339
			c-0.058-0.055-0.123-0.102-0.201-0.131c-0.072-0.031-0.154-0.051-0.24-0.051c-0.367-0.009-0.734-0.014-1.104-0.021
			c-0.367-0.006-0.734-0.011-1.1-0.015c-0.381-0.014-0.736,0.056-1.07,0.221c-0.339,0.162-0.627,0.375-0.875,0.636
			c-0.247,0.261-0.442,0.559-0.584,0.888s-0.216,0.655-0.216,0.974v1.917h-5.816l0.978-1.519c0.265-0.399,0.396-0.793,0.396-1.167
			c0-0.289-0.061-0.553-0.178-0.792c-0.116-0.237-0.275-0.444-0.473-0.615c-0.204-0.169-0.434-0.306-0.7-0.398
			c-0.266-0.101-0.547-0.146-0.838-0.146h-1.61c-0.33,0-0.637,0.056-0.902,0.163c-0.266,0.109-0.492,0.251-0.686,0.429
			c-0.192,0.178-0.336,0.384-0.441,0.614c-0.104,0.233-0.153,0.47-0.153,0.717c0,0.191,0.03,0.388,0.093,0.582
			c0.061,0.201,0.16,0.403,0.295,0.613l0.989,1.519h-5.816l-0.028-3.825c-0.006-0.111-0.032-0.21-0.08-0.312
			s-0.108-0.185-0.179-0.259c-0.075-0.072-0.166-0.132-0.269-0.176c-0.104-0.043-0.205-0.065-0.313-0.065h-1.921
			c-0.39,0-0.746,0.073-1.082,0.218c-0.334,0.144-0.631,0.344-0.885,0.594c-0.247,0.248-0.447,0.547-0.587,0.885
			c-0.145,0.337-0.22,0.695-0.22,1.074v2.301c0,0.152,0.043,0.285,0.128,0.396c0.083,0.114,0.194,0.182,0.334,0.21
			c0.229,0.062,0.465,0.107,0.704,0.14c0.239,0.034,0.49,0.052,0.755,0.058c0.253,0.003,0.53-0.005,0.821-0.026
			c0.287-0.023,0.599-0.064,0.933-0.114c-0.017-0.223-0.037-0.432-0.059-0.621c-0.019-0.192-0.037-0.406-0.052-0.639
			c-0.34,0.067-0.614,0.117-0.826,0.149c-0.212,0.03-0.397,0.047-0.558,0.047c-0.153,0-0.3-0.012-0.435-0.032
			c-0.13-0.021-0.291-0.047-0.475-0.068l-0.008-1.798c0-0.201,0.043-0.396,0.115-0.575c0.082-0.189,0.187-0.348,0.324-0.483
			c0.141-0.138,0.301-0.246,0.486-0.33c0.181-0.079,0.376-0.12,0.583-0.12l1.514,0.007l0.013,3.937c0,0.194,0.057,0.356,0.169,0.491
			c0.111,0.141,0.266,0.206,0.469,0.206h20.438c0.198,0,0.351-0.07,0.461-0.206c0.105-0.135,0.165-0.301,0.165-0.5v-4.543
			c0-0.086-0.019-0.166-0.052-0.242C483.336,49.463,483.296,49.397,483.237,49.339z M470.523,53.758h-0.226l-1.438-2.206
			c-0.108-0.174-0.17-0.344-0.17-0.508c0-0.088,0.028-0.175,0.074-0.258c0.049-0.08,0.119-0.153,0.201-0.212
			c0.089-0.056,0.182-0.105,0.295-0.138c0.107-0.041,0.226-0.055,0.347-0.055h1.61c0.104,0,0.217,0.014,0.326,0.041
			c0.108,0.028,0.21,0.075,0.289,0.126c0.092,0.057,0.164,0.128,0.218,0.209c0.062,0.083,0.087,0.18,0.087,0.286
			c0,0.157-0.06,0.328-0.176,0.507L470.523,53.758z M482.148,53.758h-3.024v-1.921c0-0.186,0.037-0.365,0.126-0.539
			c0.08-0.172,0.187-0.325,0.323-0.459c0.131-0.135,0.288-0.246,0.46-0.33c0.172-0.085,0.351-0.126,0.532-0.126h0.052
			c0.02,0,0.092,0.007,0.215,0.014h0.239c0.105,0,0.21,0,0.327,0c0.122,0,0.239,0.006,0.37,0.007
			c0.127,0.004,0.252,0.006,0.38,0.006V53.758L482.148,53.758z M493.603,56.653c-0.062-0.061-0.135-0.111-0.225-0.145
			c-0.081-0.035-0.176-0.056-0.275-0.056c-0.191,0-0.357,0.074-0.485,0.201c-0.134,0.138-0.2,0.3-0.2,0.498
			c0,0.198,0.066,0.363,0.2,0.493c0.128,0.131,0.294,0.196,0.485,0.196c0.1,0,0.193-0.02,0.275-0.054
			c0.09-0.036,0.161-0.083,0.225-0.149c0.067-0.06,0.118-0.132,0.147-0.216c0.041-0.083,0.057-0.173,0.057-0.271
			s-0.016-0.187-0.057-0.272C493.721,56.791,493.67,56.72,493.603,56.653z M496.395,53.758c-0.023-0.73-0.115-1.35-0.274-1.852
			c-0.16-0.508-0.365-0.926-0.614-1.259c-0.258-0.335-0.545-0.591-0.869-0.782c-0.322-0.186-0.66-0.329-1.021-0.424
			c-0.358-0.099-0.717-0.158-1.087-0.185c-0.364-0.025-0.715-0.046-1.049-0.06c-0.146-0.005-0.263-0.009-0.355-0.011
			c-0.09,0-0.199-0.007-0.327-0.016l-0.104,1.263c0.063,0.004,0.137,0.009,0.208,0.004c0.076,0,0.154-0.004,0.236-0.004
			c0.245,0,0.514,0.009,0.802,0.019c0.289,0.018,0.572,0.055,0.857,0.119c0.287,0.063,0.563,0.161,0.833,0.296
			c0.261,0.138,0.498,0.33,0.712,0.572c0.21,0.244,0.385,0.557,0.523,0.931c0.143,0.379,0.224,0.841,0.252,1.388h-8.992v-7.199
			h-1.264v7.774c-0.005,0.019-0.012,0.04-0.012,0.061c0,0.182,0.062,0.333,0.189,0.452c0.127,0.125,0.275,0.185,0.447,0.185h11.547
			v-1.272H496.395z"/>
	</g>
    <g>
		<polygon fill="#FFFFFF" points="268.252,72.2 263.015,69.595 262.846,69.981 268.031,72.702 		"/>
        <path fill="#FFFFFF" d="M257.273,29.362h-25.604L213.57,47.463v25.615l18.099,18.107h25.604l18.099-18.107V47.463L257.273,29.362z
			 M273.344,72.136l-17.186,17.155H232.49L215.579,72.37l0.017-24.021l16.931-17.038h23.991l16.784,16.772L273.344,72.136z"/>
        <g>
			<g>
				<g>
					<path fill="#FFFFFF" d="M242.299,44.949c0.697-0.092,1.119-0.178,1.955-0.178v-0.443c-0.008-0.533-0.25-0.799-0.896-0.771
						c0,0-0.435,0.122-0.575-0.089c0,0,0.015,0.149-0.149,0.358c-0.112,0.146-0.361,0.293-0.361,0.293s0.575-0.117,0.719-0.117
						c0.27,0,0.825-0.208,0.804,0.356h-0.009c-0.236,0.031-0.708,0.031-1.56,0.178L242.299,44.949z"/>
                    <g>
						<path fill="#FFFFFF" d="M245.116,43.468c-0.044,0-0.08,0-0.116,0l0.014,1.924h-0.009c-0.028,0.65-0.64,0.354-0.671,0.327
							c0.307,0.414,1.049,0.354,1.086-0.357l0.092-2.159C245.512,43.203,245.383,43.468,245.116,43.468z"/>
                        <path fill="#FFFFFF" d="M245.264,42.521c0.148,0,0.283-0.114,0.29-0.263c0.016-0.148-0.097-0.267-0.25-0.295
							c-0.149,0-0.282,0.115-0.29,0.265C245,42.374,245.116,42.492,245.264,42.521z"/>
					</g>
				</g>
                <g>
					<path fill="#FFFFFF" d="M250.465,44.536c-0.038,0-0.069-0.033-0.107-0.033l-0.671,1.807h-0.009
						c-0.249,0.592-0.723,0.086-0.74,0.06c0.136,0.503,0.844,0.708,1.141,0.059l0.849-1.983
						C250.927,44.444,250.721,44.623,250.465,44.536z"/>
                    <path fill="#FFFFFF" d="M247.97,46.014c0.156,0,0.281-0.089,0.289-0.268c0.008-0.147-0.111-0.265-0.258-0.265
						c-0.148-0.029-0.281,0.088-0.29,0.238C247.706,45.895,247.825,46.014,247.97,46.014z"/>
                    <path fill="#FFFFFF" d="M250.115,43.678c0,0-0.19,0.324-0.726,0.172c0,0,0.132,0.18,0.067,0.359
						c-0.023,0.058-0.148,0.414-0.275,0.797c-0.625-0.208-1.684-0.414-2.222-0.504c0,0,0.228-0.235,0.336-0.473
						c0.201-0.413,0.113-0.885,0.113-0.885c-0.016,0.237-0.1,1.094-1.479,1.687c0,0,0.886-0.06,3.554,0.738L250.115,43.678z"/>
				</g>
                <g>
					<path fill="#FFFFFF" d="M256.844,48.82l-0.807-0.854c-0.238-0.207-0.339-0.088-0.606,0.177l-0.453,0.533l0.697,0.651
						l-0.4,0.383h-0.015c-0.45,0.414-0.685-0.207-0.685-0.237c-0.078,0.475,0.479,0.947,0.998,0.506L256.844,48.82z M255.563,48.618
						l0.141-0.118c0.107-0.121,0.19-0.121,0.306-0.032l0.246,0.267l-0.288,0.295L255.563,48.618z"/>
                    <path fill="#FFFFFF" d="M255.048,45.777c0.146,0,0.272-0.119,0.272-0.266c0.01-0.149-0.12-0.268-0.266-0.296
						c-0.155,0-0.275,0.119-0.283,0.296C254.771,45.658,254.899,45.777,255.048,45.777z"/>
                    <path fill="#FFFFFF" d="M255.882,46.37c0.156,0,0.281-0.121,0.281-0.267c0-0.149-0.12-0.268-0.273-0.268
						c-0.148,0-0.274,0.119-0.274,0.268C255.615,46.249,255.733,46.37,255.882,46.37z"/>
                    <path fill="#FFFFFF" d="M254.83,46.042c-0.265-0.176-0.404-0.147-0.619,0.177l-0.363,0.563l0.748,0.56l-0.205,0.27
						c-0.295-0.21-1.214-0.83-1.672-1.094l1.129-2.043c0,0-0.337,0.208-0.82,0.119c0,0,0.149,0.061,0.062,0.206
						c-0.024,0.032-1.042,2.042-1.052,2.073c-0.25,0.441-0.604,0.353-0.777,0.266c-0.344-0.179-0.385-0.504-0.338-0.71
						c0.043-0.209,0.126-0.563,0.702-0.83c0,0,0.086,0.147,0.267,0.032c0.167-0.12,0.223-0.416,0.223-0.416
						c-0.253,0.147-1.124,0.562-1.316,1.095c-0.202,0.532,0.085,1.004,0.419,1.124c0.196,0.088,0.8,0.294,1.16-0.327l0.126-0.206
						c0.587,0.325,1.146,0.649,1.965,1.332l1.23-1.541L254.83,46.042z M254.434,46.693l0.101-0.175
						c0.09-0.122,0.134-0.122,0.26-0.03l0.288,0.205l-0.235,0.324L254.434,46.693z"/>
				</g>
                <g>
					<path fill="#FFFFFF" d="M241.111,42.877c0.148,0,0.259-0.149,0.25-0.295c-0.014-0.148-0.146-0.267-0.293-0.237
						c-0.156,0-0.267,0.147-0.252,0.296C240.822,42.788,240.956,42.877,241.111,42.877z"/>
                    <path fill="#FFFFFF" d="M238.418,47.047c0.148,0,0.26-0.146,0.252-0.293c-0.014-0.149-0.149-0.267-0.296-0.267
						c-0.145,0.03-0.268,0.146-0.25,0.294C238.14,46.959,238.263,47.047,238.418,47.047z"/>
                    <path fill="#FFFFFF" d="M239.248,46.634c0.146,0,0.257-0.146,0.25-0.294c-0.013-0.15-0.146-0.267-0.295-0.237
						c-0.157,0-0.268,0.146-0.252,0.293C238.961,46.546,239.093,46.663,239.248,46.634z"/>
                    <path fill="#FFFFFF" d="M241.266,44.711c-0.436,0.088-0.866,0.205-0.866,0.205l-0.977-1.033c0,0-0.147-0.205-0.42-0.177
						c-0.178,0.028-0.495,0.207-0.645,0.323c-0.161,0.118-0.279,0.328-0.125,0.506l0.754,0.856c-0.629,0.207-1.177,0.503-1.67,0.741
						c0,0,0.052-0.326,0-0.563c-0.09-0.473-0.445-0.77-0.445-0.77c0.133,0.179,0.57,0.919-0.167,2.219c0,0,0.775-0.648,3.05-1.478
						l-1.107-1.182c0.06-0.091,0.245-0.21,0.406-0.21l1.153,1.245c0.409-0.088,1.05-0.237,1.538-0.325l-0.275-1.747
						c0,0-0.066,0.297-0.25,0.415c-0.209,0.06-0.391,0.149-0.391,0.149s0.242-0.12,0.333,0.295L241.266,44.711z"/>
				</g>
                <g>
					<path fill="#FFFFFF" d="M236.188,47.314h-0.355c-0.311,0-0.372-0.208-0.372-0.208c-0.031,0.208-0.288,0.327-0.547,0.269
						c-0.214-0.033-0.377-0.269-0.391-0.563c-0.007-0.354,0.31-0.593,0.555-0.472c-0.03,0.118,0.043,0.234,0.116,0.234
						c0.097,0.031,0.236,0,0.229-0.146c-0.013-0.149-0.146-0.179-0.152-0.179c-0.504-0.117-0.962,0.238-0.984,0.652
						c-0.016,0.384,0.244,0.77,0.6,0.77c-0.194,0.149-0.376,0.295-0.534,0.445l-1.61-1.836c0,0,0.059,0.326-0.17,0.68
						c0,0,0.088-0.086,0.182,0.029c0.076,0.09,0.854,0.917,1.282,1.391c-0.156,0.147-0.273,0.269-0.361,0.355
						c-0.083-0.029-0.171-0.058-0.267-0.058c-0.384-0.028-0.725,0.267-0.754,0.651c-0.013,0.146,0.03,0.267,0.095,0.383
						c-0.088,0.118-0.189,0.269-0.28,0.355l-1.93-1.48c0,0,0.117,0.327-0.04,0.709c0,0,0.068-0.119,0.188-0.029
						c0.125,0.119,1.864,1.392,1.864,1.392l0.088-0.12c0.021,0,0.043-0.031,0.051-0.031c0.052-0.057,0.22-0.296,0.384-0.5
						c0.067,0.028,0.142,0.058,0.221,0.058c0.386,0.03,0.717-0.267,0.749-0.652c0.013-0.118-0.015-0.237-0.073-0.355
						C234.752,48.263,235.697,47.612,236.188,47.314z M233.333,49.622c-0.142-0.028-0.237-0.148-0.229-0.265
						c0.007-0.149,0.126-0.238,0.267-0.238c0.131,0,0.236,0.119,0.219,0.267C233.586,49.535,233.464,49.622,233.333,49.622z"/>
                    <g>
						<path fill="#FFFFFF" d="M230.863,48.32c0,0,0.68-0.442,0.852-1.034h0.117c0,0,0.038,0.295-0.28,0.65
							C231.239,48.291,230.863,48.32,230.863,48.32z"/>
                        <path fill="#FFFFFF" d="M231.18,48.586c0,0,0.681-0.471,0.853-1.064h0.115c0,0,0.031,0.324-0.279,0.649
							C231.557,48.526,231.18,48.586,231.18,48.586z"/>
					</g>
				</g>
			</g>
            <g>
				<path fill="#FFFFFF" d="M241.673,34.534c-0.03-0.234,0.171-0.234,0.171-0.234c-0.623-0.091-0.926-0.504-0.926-0.504l0.577,4.2
					c0.022,0.147-0.073,0.267-0.208,0.298c-0.15,0.027-0.276-0.062-0.296-0.209l-0.697-4.169c0,0-0.174,0.472-0.73,0.767
					c0,0,0.186-0.086,0.23,0.148c0.013,0.087,0.213,1.125,0.384,2.04c-0.333,0.062-0.667,0.148-0.976,0.239l-0.282-1.332
					c0,0-0.147,0.502-0.681,0.828c0,0,0.177-0.088,0.229,0.15c0.022,0.088,0.081,0.325,0.125,0.501
					c-0.259,0.088-0.532,0.148-0.768,0.208l-0.364-1.271c0,0-0.114,0.471-0.633,0.825c0,0,0.17-0.086,0.237,0.15
					c0.029,0.088,0.185,0.502,0.185,0.502c-0.239,0.056-0.481,0.116-0.69,0.207l-0.422-1.213c0,0-0.103,0.475-0.604,0.858
					c0,0,0.177-0.089,0.25,0.12c0.017,0.058,0.777,2.099,0.777,2.099c0.085,0.238-0.012,0.564-0.451,0.622
					c-0.059,0-0.117-0.029-0.177-0.058c0.118,0.086,0.245,0.118,0.377,0.118c0.452,0,0.969-0.354,0.798-0.948l-0.329-0.975
					c1.047-0.416,2.281-0.742,3.515-0.977c0.078,0.384,0.143,0.648,0.143,0.648c0.059,0.358,0.354,0.624,0.7,0.682
					c0.193,0,0.261,0.269,0.261,0.269c0-0.146,0.082-0.299,0.133-0.357c0.341-0.118,0.548-0.445,0.525-0.798l-0.008,0.029
					C242.049,37.996,241.694,34.683,241.673,34.534z"/>
                <path fill="#FFFFFF" d="M249.955,34.448c0.207,0,0.367-0.177,0.367-0.385s-0.16-0.355-0.367-0.355
					c-0.203,0-0.374,0.146-0.374,0.355C249.582,34.271,249.752,34.448,249.955,34.448z"/>
                <path fill="#FFFFFF" d="M262.396,45.392l-0.364-0.475l2.625-2.304c0,0-0.153,0.472,0.091,1.065c0,0-0.097-0.178-0.275-0.031
					C264.304,43.795,262.396,45.392,262.396,45.392z"/>
                <path fill="#FFFFFF" d="M227.476,44.739l-0.385,0.475l-2.667-2.306c0,0,0.494,0.088,1.041-0.239c0,0-0.153,0.119,0.017,0.296
					L227.476,44.739z"/>
                <path fill="#FFFFFF" d="M236.651,35.394c0.2,0,0.362-0.178,0.362-0.383c0-0.208-0.162-0.357-0.362-0.357
					s-0.361,0.149-0.361,0.357C236.29,35.216,236.452,35.394,236.651,35.394z"/>
                <path fill="#FFFFFF" d="M236.954,36.311c0.201,0,0.364-0.146,0.364-0.355c0-0.207-0.163-0.385-0.364-0.385
					c-0.2,0-0.362,0.179-0.362,0.385C236.592,36.165,236.755,36.311,236.954,36.311z"/>
                <path fill="#FFFFFF" d="M239.364,39.534c0.201,0,0.355-0.146,0.355-0.354c0-0.204-0.154-0.384-0.355-0.384
					c-0.198,0-0.36,0.181-0.36,0.384C239.004,39.388,239.166,39.534,239.364,39.534z"/>
                <path fill="#FFFFFF" d="M221.873,56.216c0.171-1.064,0.275-1.536,0.636-2.747l-0.622-0.208c-0.524-0.118-1.388,0.06-1.581,0.885
					c0,0-0.097,0.771-0.385,0.803c0,0,0.193,0.057,0.417,0.382c0.146,0.207,0.242,0.651,0.242,0.651s0.17-0.858,0.221-1.064
					c0.123-0.383,0.123-1.301,0.911-0.975l0,0c-0.088,0.354-0.289,0.885-0.497,2.159L221.873,56.216z"/>
                <path fill="#FFFFFF" d="M234.329,37.11c0,0-0.051,0.414-0.383,0.591c-0.798,0.384-0.879,0.977-0.659,1.45l0.378,0.739
					l0.989-0.502l0.327,0.71l0.008,0.029c0.34,0.768-0.584,0.797-0.637,0.768c0.62,0.327,1.501-0.176,1.117-1.064L234.329,37.11z
					 M233.873,39.032c-0.105-0.179-0.143-0.325-0.09-0.473c0.051-0.119,0.346-0.296,0.346-0.296l0.245,0.532L233.873,39.032z"/>
                <path fill="#FFFFFF" d="M227.883,41.281c0,0,0.081,0.41-0.187,0.681c-0.641,0.62-0.538,1.211-0.182,1.595l0.583,0.59
					l0.783-0.827l0.533,0.593h0.007c0.568,0.651-0.303,0.975-0.37,0.975c0.697,0.091,1.374-0.649,0.739-1.388L227.883,41.281z
					 M228.031,43.263c-0.155-0.15-0.236-0.267-0.23-0.414c0.009-0.148,0.245-0.415,0.245-0.415l0.393,0.415L228.031,43.263z"/>
                <path fill="#FFFFFF" d="M231.499,38.025c-0.119-0.206,0.065-0.267,0.065-0.267c-0.605,0.149-1.042-0.086-1.042-0.086
					l1.463,2.455c-0.383,0.236-0.976,0.677-1.566,1.124c0,0-0.095-0.532-0.238-0.74c-0.235-0.354-0.642-0.472-0.642-0.472
					c0.236,0.237,0.872,1.004,0.259,2.515c0,0,0.584-0.652,3.03-2.19C232.828,40.363,231.618,38.232,231.499,38.025z"/>
                <path fill="#FFFFFF" d="M252.417,34.741c0,0-0.296,0.297-0.651,0.177c-0.865-0.205-1.308,0.178-1.444,0.709l-0.177,0.8
					l1.084,0.266l-0.428,1.508c0,0-0.072,0.563-0.368,0.505c-0.288-0.09-0.125-0.592-0.125-0.592l0.205-0.914
					c0,0-1.181-0.269-1.351-0.298c0,0,0.177-0.738-0.225-1.241c-0.365-0.504-0.722-0.504-0.722-0.504l0.183-1.362
					c0,0-0.266,0.651-1.018,0.622h-0.007c-0.008,0-0.008,0,0,0c0.11,0.03,0.332,0.086,0.288,0.413l-0.03,0.265
					c0,0-0.467-0.058-0.94,0.358c-0.399,0.382-0.42,1.063-0.42,1.063s-0.34-0.03-0.443-0.03l0.008-0.504
					c-0.039-0.414-0.417-0.888-1.155-0.914c0,0-0.82,0.088-1.019-0.209c0,0,0,0.268-0.177,0.446
					c-0.193,0.206-0.494,0.321-0.494,0.321s0.825-0.058,1.032-0.027c0.695,0.062,1.266-0.146,1.256,0.827
					c0,0.03-2.274,0.09-2.274,0.09l0.034,0.652c0,0,2.108-0.15,3.203-0.03v0.828c0,0,0.028,0.77,0.699,0.828
					c0.779,0.058,0.865-0.68,0.865-0.68l0.113-0.799c0.405,0.089,1.263,0.237,1.909,0.385l-0.091,0.562c0,0-0.155,0.681,0.453,0.945
					c0.066,0.092,0.058,0.209,0.034,0.268c0,0,0.083-0.146,0.208-0.206c0.467,0.06,0.656-0.209,0.776-0.623
					C251.209,38.647,252.349,34.949,252.417,34.741z M247.277,38.085c0,0-0.029,0.209-0.273,0.209c-0.176,0-0.267-0.269-0.267-0.269
					l0.031-0.824l0.606,0.056L247.277,38.085z M247.446,36.605l-0.613-0.058c0.034-0.443,0.273-0.858,0.725-0.858L247.446,36.605z
					 M248.638,36.813l-0.621-0.12l0.1-0.945c0.232,0.087,0.423,0.265,0.512,0.445C248.726,36.428,248.638,36.813,248.638,36.813z
					 M250.838,35.897c0.055-0.208,0.104-0.327,0.238-0.415c0.202-0.088,0.498,0.03,0.498,0.03l-0.162,0.563L250.838,35.897z"/>
                <path fill="#FFFFFF" d="M219.271,57.491c0.427,0.206,0.59,0.413,0.59,0.413c0.475-0.413,1.205-0.147,1.219,0.416
					c0.013,0.708-0.548,0.767-0.723,0.767c-0.202,0-0.511,0.029-1.192-0.682c-0.745-0.737-1.085-0.501-1.225-0.354c0,0,0,0,0.007,0
					c-0.046,0.061-0.073,0.12-0.073,0.209c0.005,0.178,0.152,0.324,0.338,0.324c0.178-0.03,0.325-0.179,0.319-0.354
					c0-0.059-0.022-0.089-0.046-0.146c0.165,0.028,0.239,0.087,0.548,0.444c0.659,0.707,1.117,0.856,1.45,0.827
					c0.465,0,1.103-0.443,1.087-1.184c-0.024-0.889-0.887-1.183-1.233-1.154C219.625,57.017,219.271,57.491,219.271,57.491z"/>
                <path fill="#FFFFFF" d="M262.845,41.517c0,0,0.164,0.116-0.006,0.298c-0.246,0.236-1.434,1.479-1.434,1.479
					c-0.1-0.091-0.306-0.297-0.562-0.505c0.03-0.087,0.05-0.207,0.05-0.296c0.004-0.207-0.154-0.561-0.154-0.561
					c-0.1-0.149,0.012-0.354,0.012-0.354s-0.153,0.148-0.384,0.056c-0.125-0.056-0.258-0.086-0.407-0.116
					c-0.177,0-0.336,0.06-0.472,0.146c-0.17-0.117-0.77-0.561-0.77-0.561l1.709-2.395c0,0-0.46,0.207-1.05,0
					c0,0,0.177,0.088,0.052,0.268c-0.104,0.146-1.783,2.658-1.783,2.658c-0.075,0.121-0.235,0.182-0.356,0.092
					c-0.115-0.092-0.15-0.239-0.071-0.356l0.863-1.39c0.199-0.267,0.235-0.857-0.361-1.214c-0.485-0.295-2.646-1.39-3.854-1.833
					l3.181,0.681c0.399,0.115,0.475,0.266,0.495,0.326c0,0,0.157-0.533,1.035-0.474l-5.162-1.123l-0.317,0.916
					c0.954,0.324,2.678,1.124,3.707,1.657c0.457,0.266,1.005,0.445,0.501,1.213c0,0-2.056-1.304-4.15-2.102
					c0,0-0.441-0.117-0.462-0.354c0,0-0.1,0.591-0.948,0.5c0,0,2.521,0.682,5.25,2.459l-0.252,0.412
					c-0.196,0.327-0.155,0.711,0.069,1.008c0.13,0.12,0.029,0.355,0.029,0.355c0.086-0.121,0.241-0.149,0.315-0.149
					c0.334,0.149,0.672,0.058,0.896-0.238l0,0l0.34-0.473c0,0,0.133,0.117,0.333,0.295c0.075,0.06,0.198,0.148,0.355,0.267
					c-0.046,0.118-0.075,0.236-0.075,0.355c0,0.532,0.422,0.945,0.938,0.945c0.179,0,0.336-0.028,0.475-0.116
					c0.191,0.174,0.331,0.293,0.341,0.293l0.565,0.592l2.546-2.454C263.875,41.726,263.394,41.842,262.845,41.517z M259.947,42.877
					c-0.214,0-0.384-0.176-0.384-0.413c0-0.208,0.181-0.387,0.393-0.387c0.217,0,0.391,0.179,0.391,0.415
					C260.339,42.701,260.173,42.877,259.947,42.877z"/>
                <g>
					<path fill="#FFFFFF" d="M266.528,58.051c0.198,0,0.356-0.174,0.356-0.383c0-0.206-0.158-0.355-0.356-0.355
						c-0.199,0-0.359,0.15-0.359,0.355C266.168,57.876,266.329,58.051,266.528,58.051z"/>
                    <path fill="#FFFFFF" d="M269.24,56.721c-0.208-0.148-0.464-0.472-0.464-0.472s0.14,0.8,0.155,1.004
						c0.028,0.444,0.324,1.275-0.525,1.275v-0.031c-0.128-1.508-0.531-3.491-0.531-3.491c-0.012-0.027,2.74-0.709,2.74-0.709
						s-0.473-0.179-0.791-0.71c0,0,0.018,0.205-0.197,0.266l-2.53,0.649c0.045,0.179,0.095,0.358,0.148,0.594l0,0
						c0.208,0.886,0.437,2.188,0.568,4.14l0.649-0.029c0.542-0.059,1.275-0.473,1.179-1.329c0,0-0.184-0.594,0.107-0.949
						C269.749,56.928,269.558,56.958,269.24,56.721z"/>
                    <path fill="#FFFFFF" d="M265.664,44.799c0.197,0,0.364-0.146,0.368-0.355c0.006-0.206-0.146-0.384-0.348-0.384
						c-0.197,0-0.359,0.149-0.37,0.354C265.31,44.623,265.464,44.799,265.664,44.799z"/>
                    <path fill="#FFFFFF" d="M266.523,46.014c0.197,0,0.361-0.148,0.367-0.356c0.007-0.207-0.146-0.383-0.346-0.383
						c-0.203,0-0.37,0.148-0.37,0.355C266.168,45.835,266.32,46.014,266.523,46.014z"/>
                    <path fill="#FFFFFF" d="M268.553,52.669c-0.212-0.563-0.776-1.242-1.611-0.857c-0.086-0.239-0.658-1.481-0.774-1.776
						c0.345,0.03,0.885,0.502,0.885,0.502s0.385-0.355,0.302-0.886c0,0,0.127-0.179,0.098-0.325
						c-0.069-0.384,0.123-0.475,0.123-0.475s-0.221,0.091-0.466-0.205c-0.088-0.092-0.287-0.122-0.287-0.122
						c-0.548-0.502-1.05-0.236-1.05-0.236c0.102,0.385-0.059,0.886-0.059,0.886c-0.637-1.093-1.02-1.713-1.02-1.713l0.696-0.475
						l1.151-0.74c0,0-0.495,0-0.971-0.414c0,0,0.091,0.179-0.104,0.298c-0.035,0.03-0.101,0.057-0.189,0.117
						c-0.563-0.709-1.204-1.035-2.25-0.176c0.687,0.887,1.681,2.545,2.256,3.609l0.337,0.146l-0.08,0.354
						c0.836,1.688,1.399,3.52,1.399,3.52l2.107-0.618C269.049,53.085,268.686,53.024,268.553,52.669z M266.255,48.764
						c0,0,0.347,0.03,0.549,0.444c0.167,0.386,0.036,0.679,0.036,0.679s-0.176-0.176-0.652-0.324
						C266.188,49.563,266.292,49.295,266.255,48.764z M263.905,46.31c0.376-0.237,0.657-0.031,0.854,0.295l-0.425,0.326
						L263.905,46.31z M267.328,52.994l-0.201-0.591c0.213-0.12,0.368-0.148,0.585-0.027c0.221,0.116,0.302,0.412,0.302,0.412
						L267.328,52.994z"/>
				</g>
                <path fill="#FFFFFF" d="M226.62,45.746l-2.663-2.278c0,0,0.161,0.478-0.073,1.068c0,0,0.096-0.178,0.271-0.033l1.605,1.304
					l-0.502,0.651h0.013c-0.073,0-0.146-0.03-0.219-0.03c-0.259,0-0.488,0.118-0.657,0.265c-0.112,0.062-0.29,0-0.29,0
					s0.125,0.148,0.088,0.296c-0.052,0.118-0.083,0.237-0.083,0.387c0,0.206,0.075,0.415,0.201,0.561
					c-0.147,0.266-0.689,1.154-0.696,1.123c-0.021-0.239,0.031-0.796,0.031-0.796c-0.326-0.179-0.749-0.092-1.085,0.205
					c-0.15-0.03-0.304,0.088-0.424,0.267c-0.131,0.085-0.303,0.029-0.303,0.029s0.148,0.149,0.132,0.295
					c-0.049,0.179-0.042,0.327,0.024,0.445c-0.052,0.444,0.095,0.858,0.436,1.035c0,0,0.332-0.295,0.681-0.442
					c0,0-0.407,0.888-0.593,1.448l-2.667-1.005c0,0,0.309,0.385,0.28,1.005c0,0,0.029-0.175,0.245-0.117
					c0.215,0.086,2.541,0.887,2.541,0.887s0.647-1.627,0.88-2.161l-0.117-0.383l0.407-0.118c0.258-0.502,0.502-0.947,0.716-1.304
					l0.038-0.086c0.067,0.028,0.134,0.028,0.201,0.028c0.508,0,0.932-0.413,0.939-0.916c0-0.208-0.065-0.387-0.17-0.534
					L226.62,45.746z M222.893,49.622c-0.208,0.089-0.338,0.265-0.338,0.265c-0.127-0.293-0.077-0.56,0.021-0.736
					c0.094-0.179,0.348-0.416,0.577-0.445c0,0-0.031,0.238-0.015,0.445c0.015,0.145,0.043,0.353,0.043,0.353
					S223.012,49.563,222.893,49.622z M225.038,47.759c-0.208,0-0.379-0.178-0.379-0.384c0-0.208,0.178-0.387,0.388-0.387
					c0.211,0,0.383,0.179,0.383,0.387C225.421,47.581,225.251,47.759,225.038,47.759z"/>
			</g>
		</g>
        <g>
			<path fill="#FFFFFF" d="M265.659,76.431l-2.097-1.568l0.171-0.207l-0.367-0.265l-0.157,0.207l-0.813-0.619l-0.266,0.321
				l0.804,0.651l-0.3,0.386c-0.121,0.147-0.357-0.058-0.357-0.058l-1.318-1.095c-0.212-0.149-0.136-0.326-0.136-0.326l0.529-0.68
				l-0.348-0.267c0,0-0.613,0.769-0.633,0.797c-0.29,0.326,0.073,0.592,0.073,0.592l1.639,1.421
				c0.239,0.205,0.357,0.146,0.468,0.061c-0.185,0.265,0.111,0.442,0.111,0.442l1.567,1.391c0,0,0.327,0.235,0.598-0.118
				L265.659,76.431z M264.952,76.727c-0.013,0.029-0.204,0.267-0.204,0.267c-0.205,0.207-0.391,0.061-0.391,0.061l-1.207-1.037
				c-0.208-0.177-0.237-0.235-0.178-0.325l0.326-0.446l1.479,1.186C264.879,76.521,265.06,76.579,264.952,76.727z"/>
            <path fill="#FFFFFF" d="M266.985,60.893l-1.325-0.06c-0.241,0-0.426,0.116-0.434,0.738c-0.064,0.623,0.096,0.709,0.398,0.771
				l1.819,0.147c0,0,0.185,0.059,0.49-0.354l0.463-0.65c0.139-0.151,0.305-0.121,0.738-0.09l1.141,0.059
				c0.132,0.032,0.287,0.058,0.281,0.236l-0.049,0.414c-0.009,0.176-0.113,0.238-0.32,0.176l-1.235-0.115l-0.029,0.474l1.603,0.175
				c0.37,0,0.495-0.265,0.504-0.504l0.057-0.798c0.014-0.354-0.197-0.503-0.562-0.533l-1.789-0.057c-0.293,0-0.495,0-0.575,0.147
				l-0.534,0.711c-0.252,0.355-0.391,0.234-0.391,0.234l-1.212-0.059c-0.288,0-0.372-0.089-0.334-0.385
				c0.03-0.294,0.055-0.354,0.393-0.323l0.872,0.058L266.985,60.893z"/>
            <polygon fill="#FFFFFF" points="269.743,68.58 269.248,68.434 269.063,68.964 267.09,68.253 267.226,67.842 266.788,67.696
				266.647,68.079 264.473,67.31 264.605,66.899 264.206,66.75 263.924,67.545 269.375,69.616 			"/>
            <polygon fill="#FFFFFF"
                     points="270.936,63.097 270.501,63.064 270.425,63.69 265.1,62.977 265.033,63.361 270.78,64.222 			"/>
            <polygon fill="#FFFFFF" points="267.793,73.18 262.664,70.37 262.476,70.724 264.814,72.646 262,71.523 261.762,71.876
				266.62,75.1 266.921,74.688 263.845,72.706 267.241,74.097 264.335,71.788 267.535,73.594 			"/>
            <path fill="#FFFFFF" d="M267.971,66.391l2.237,0.591l0.142-0.502l-2.395-0.593c0,0-0.324,0-0.404,0.176
				c-0.024-0.116-0.055-0.352-0.357-0.352l-2.028-0.473c0,0-0.469-0.18-0.561,0.205l-0.324,1.065l5.572,1.773l0.149-0.503
				l-2.507-0.735l0.142-0.535C267.691,66.332,267.822,66.361,267.971,66.391z M267.033,66.893l-2.16-0.619l0.111-0.444
				c0,0,0-0.236,0.255-0.148c0.269,0.088,1.725,0.441,1.725,0.441s0.294,0.063,0.239,0.269L267.033,66.893z"/>
            <polygon fill="#FFFFFF" points="263.209,69.188 268.489,71.733 268.701,71.26 264.768,69.482 268.975,70.549 269.182,70.075
				263.77,67.885 263.598,68.271 266.608,69.542 263.363,68.803 			"/>
            <path fill="#FFFFFF" d="M270.615,64.91l0.076-0.442l-5.826-0.472l-0.097,0.445l5.583,1.773l0.117-0.504l-1.327-0.355l0.117-0.562
				L270.615,64.91z M268.782,65.266l-2.918-0.824l3.015,0.32L268.782,65.266z"/>
            <g>
				<polygon fill="#FFFFFF"
                         points="224.002,62.637 224.045,63.054 218.303,63.793 218.244,63.26 				"/>
                <polygon fill="#FFFFFF" points="224.141,63.348 218.376,64.205 218.448,64.679 222.493,63.999 218.575,65.506 218.65,65.98
					224.395,64.707 224.319,64.353 220.711,65.063 224.209,63.734 				"/>
                <polygon fill="#FFFFFF" points="218.228,63.054 220.988,61.72 223.986,62.46 223.943,62.045 221.636,61.484 223.928,61.396
					223.913,61.011 218.087,61.185 218.096,61.693 220.364,61.541 218.183,62.549 				"/>
                <path fill="#FFFFFF" d="M221.509,67.607l-0.227-0.797l-0.424,0.116l0.103,0.355l-1.078,0.354
					c-0.162,0.033-0.353-0.06-0.399-0.233l-0.081-0.356c-0.06-0.208,0.133-0.268,0.302-0.296l4.075-1.063
					c0.278-0.059,0.376-0.059,0.473,0.321c0.082,0.298-0.088,0.387-0.31,0.416l-1.207,0.354l0.119,0.416l1.54-0.472
					c0.316-0.091,0.48-0.208,0.288-0.862c-0.155-0.619-0.288-0.708-0.681-0.619l-4.643,1.095c-0.375,0.118-0.564,0.263-0.458,0.71
					c0,0,0.132,0.712,0.545,0.68l-0.303,0.089l0.156,0.503L221.509,67.607z"/>
			</g>
            <path fill="#FFFFFF" d="M257.515,76.482l3.046,3.875c0.166,0.238,0.201,0.354,0.08,0.475l-0.272,0.233
				c-0.186,0.119-0.324,0-0.472-0.204l-2.937-3.963l-0.33,0.234l3.113,4.378c0.168,0.266,0.42,0.297,0.62,0.148l0.748-0.594
				c0.217-0.176,0.376-0.325,0.146-0.65l-3.454-4.168L257.515,76.482z"/>
            <path fill="#FFFFFF" d="M244.333,81.481c0.008-0.298-0.052-0.503-0.725-0.534c-0.648-0.059-0.791,0.118-0.805,0.442l-0.465,4.854
				c-0.024,0.356,0.272,0.503,0.637,0.503l0.708,0.028c0.361,0.029,0.542-0.116,0.562-0.471L244.333,81.481z M243.44,86.331
				l-0.369-0.027c-0.188,0-0.23-0.208-0.223-0.385l0.31-4.172c0.029-0.266,0.069-0.385,0.445-0.357
				c0.302,0.033,0.338,0.121,0.324,0.387l-0.146,4.26C243.771,86.216,243.615,86.331,243.44,86.331z"/>
            <path fill="#FFFFFF" d="M254.766,78.905c-0.156-0.265-0.309-0.412-0.904-0.116c-0.59,0.268-0.617,0.503-0.479,0.799l1.983,4.438
				c0.162,0.322,0.48,0.295,0.806,0.146l0.636-0.324c0.323-0.179,0.39-0.355,0.236-0.681L254.766,78.905z M256.369,83.581
				l-0.34,0.149c-0.164,0.056-0.271-0.062-0.354-0.238l-1.812-3.784c-0.11-0.268-0.125-0.357,0.216-0.534
				c0.271-0.117,0.355-0.06,0.48,0.204l1.902,3.761C256.541,83.283,256.533,83.492,256.369,83.581z"/>
            <polygon fill="#FFFFFF" points="245.619,84.202 245.608,83.701 245.198,83.73 245.148,81.452 245.655,81.452 245.634,80.979
				244.762,81.008 244.748,86.834 245.243,86.834 245.206,84.231 			"/>
            <path fill="#FFFFFF" d="M249.192,83.196l-0.438-2.218c0,0-0.065-0.414-0.45-0.327l-1.102,0.21l0.68,5.737l0.538-0.092
				l-0.365-2.57l0.863-0.179C248.918,83.758,249.303,83.758,249.192,83.196z M248.511,83.347l-0.541,0.118l-0.288-2.249l0.356-0.061
				c0.177-0.06,0.301,0,0.316,0.118l0.325,1.775C248.68,83.049,248.718,83.312,248.511,83.347z"/>
            <polygon fill="#FFFFFF" points="251.281,85.946 251.18,85.535 250.58,85.68 250.094,83.581 250.501,83.465 250.388,83.019
				249.989,83.108 249.466,80.861 249.929,80.74 249.828,80.297 248.962,80.534 250.162,86.243 			"/>
            <polygon fill="#FFFFFF" points="259.768,82.073 259.527,81.719 258.981,82.073 257.761,80.268 258.123,79.971 257.886,79.616
				257.515,79.883 256.228,77.931 256.7,77.605 256.471,77.25 255.675,77.783 258.791,82.753 			"/>
            <polygon fill="#FFFFFF" points="258.625,82.842 258.387,82.427 257.849,82.753 255.149,78.107 254.81,78.315 257.64,83.404
				"/>
            <polygon fill="#FFFFFF" points="252.63,85.563 251.01,80.447 251.396,80.326 251.267,79.916 250.055,80.268 250.183,80.711
				250.608,80.564 252.134,85.711 			"/>
            <polygon fill="#FFFFFF" points="263.534,78.85 259.4,74.734 259.084,75.031 260.777,77.575 258.454,75.684 258.108,76.01
				261.892,80.415 262.279,80.06 259.874,77.312 262.73,79.678 260.599,76.568 263.173,79.205 			"/>
            <path fill="#FFFFFF" d="M253.797,82.694l0.858,2.13l0.495-0.18l-1.012-2.394c0,0-0.149-0.119-0.334-0.089
				c0.081-0.089,0.247-0.237,0.06-0.503l-0.812-1.892c0,0-0.141-0.504-0.503-0.327l-1.056,0.384l1.913,5.531l0.494-0.176
				l-0.902-2.484l0.508-0.179C253.677,82.427,253.738,82.546,253.797,82.694z M252.829,82.251l-0.782-2.101l0.404-0.18
				c0,0,0.194-0.146,0.287,0.119c0.096,0.236,0.662,1.657,0.662,1.657s0.111,0.236-0.091,0.296L252.829,82.251z"/>
            <path fill="#FFFFFF" d="M236.436,81.184l0.505-1.213c0.083-0.237,0.043-0.439-0.555-0.679c-0.54-0.264-0.689-0.147-0.835,0.148
				l-0.784,1.625c0,0-0.105,0.18,0.17,0.594l0.444,0.651c0.141,0.236,0.038,0.324-0.046,0.503l-0.568,1.3
				c-0.052,0.119-0.163,0.234-0.333,0.147l-0.364-0.177c-0.162-0.059-0.131-0.178-0.042-0.383l0.509-1.095l-0.428-0.208
				l-0.703,1.479c-0.134,0.325,0.075,0.533,0.289,0.624l0.725,0.323c0.333,0.148,0.584,0.028,0.723-0.295l0.682-1.715
				c0.104-0.268,0.149-0.442-0.022-0.683l-0.421-0.621c-0.26-0.385-0.12-0.472-0.12-0.472l0.496-1.096
				c0.123-0.266,0.243-0.297,0.472-0.209c0.265,0.12,0.32,0.182,0.187,0.505l-0.355,0.8L236.436,81.184z"/>
            <path fill="#FFFFFF" d="M229.473,74.38l-3.698,3.434c-0.185,0.179-0.303,0.237-0.428,0.117l-0.28-0.355
				c-0.127-0.119-0.098-0.234,0.095-0.413l3.83-3.282l-0.244-0.299l-4.118,3.433c-0.222,0.209-0.222,0.442-0.061,0.623l0.526,0.591
				c0.251,0.294,0.45,0.354,0.723,0.114l3.897-3.693L229.473,74.38z"/>
            <polygon fill="#FFFFFF" points="230.729,82.961 230.952,82.574 230.39,82.218 231.618,80.415 231.948,80.623 232.208,80.238
				231.882,80.002 233.156,78.107 233.612,78.404 233.849,78.02 233.067,77.52 229.725,82.28 			"/>
            <polygon fill="#FFFFFF" points="237.464,85.887 238.93,80.683 239.44,80.799 239.545,80.385 238.192,80.002 238.05,80.447
				238.538,80.596 236.984,85.739 			"/>
            <path fill="#FFFFFF" d="M233.294,81.897l-0.988,1.889l0.467,0.239l1.076-2.128c0.179-0.358,0-0.475-0.072-0.534
				c0.109,0,0.318,0.06,0.443-0.179c0.264-0.474,0.974-1.893,0.974-1.893s0.236-0.413-0.11-0.59l-0.969-0.533l-2.972,4.998
				l0.438,0.265l1.306-2.276l0.319,0.208C233.487,81.538,233.37,81.747,233.294,81.897z M233.116,80.74l1.117-1.951l0.407,0.178
				c0.214,0.117,0.058,0.297-0.017,0.411l-0.798,1.511c0,0-0.073,0.207-0.258,0.119L233.116,80.74z"/>
            <polygon fill="#FFFFFF" points="237.561,79.768 237.91,79.883 236.052,85.417 235.543,85.269 			"/>
            <polygon fill="#FFFFFF" points="231.298,76.156 231.587,76.422 227.906,80.92 227.542,80.623 			"/>
            <polygon fill="#FFFFFF" points="229.989,74.943 225.858,79.057 226.191,79.378 228.978,76.511 226.745,79.883 227.105,80.209
				230.936,75.893 230.649,75.595 228.46,77.992 230.228,75.21 			"/>
            <polygon fill="#FFFFFF" points="241.243,80.711 240.806,80.651 240.104,82.87 240.231,80.534 239.78,80.447 239.691,83.73
				239.121,86.274 239.624,86.362 240.112,83.818 			"/>
            <polygon fill="#FFFFFF" points="231.736,76.542 228.654,81.511 228.998,81.776 232.896,77.399 232.55,77.133 229.821,80.326
				232.081,76.807 			"/>
            <g>
				<path fill="#FFFFFF" d="M220.748,71.866l0.213,0.414l4.977-3.048l-0.2-0.411l-5.53,1.834l0.194,0.472l1.285-0.501l0.237,0.53
					L220.748,71.866z M222.044,70.506l2.844-1.036l-2.64,1.48L222.044,70.506z"/>
                <polygon fill="#FFFFFF" points="221.733,73.702 221.961,74.115 226.951,71.098 226.73,70.771 224.319,72.192 223.981,71.569
					226.427,70.24 226.28,69.916 221.094,72.547 221.317,73.022 223.595,71.748 223.958,72.398 				"/>
                <path fill="#FFFFFF" d="M227.567,72.901c0,0,0.449-0.177,0.13-0.652c-0.308-0.501-0.517-0.796-0.517-0.796l-4.915,3.135
					l0.754,1.096c0,0,0.258,0.414,0.667,0.087C224.09,75.445,227.567,72.901,227.567,72.901z M223.129,75.062l-0.229-0.327
					l4.192-2.808c0,0,0.181,0.266,0.283,0.415c0.11,0.175-0.178,0.294-0.23,0.354c-0.053,0.057-3.178,2.218-3.579,2.514
					C223.368,75.328,223.292,75.298,223.129,75.062z"/>
                <polygon fill="#FFFFFF" points="222.419,69.204 222.605,69.619 223.025,69.444 222.855,68.998 224.948,68.199 225.208,68.76
					225.628,68.582 225.272,67.669 219.825,69.709 219.987,70.152 				"/>
			</g>
		</g>
        <polygon fill="#FFFFFF" points="243.297,50.243 242.634,50.597 242.863,52.167 243.448,51.988 		"/>
        <polygon fill="#FFFFFF" points="243.477,52.283 242.898,52.463 243.027,53.823 243.534,53.763 		"/>
        <polygon fill="#FFFFFF" points="243.551,49.829 243.24,47.521 244.61,47.314 244.598,49.771 		"/>
        <polygon fill="#FFFFFF" points="242.101,48.202 242.581,50.304 243.293,49.917 242.981,47.642 		"/>
        <polygon fill="#FFFFFF" points="243.579,50.096 243.72,51.898 244.598,51.898 244.598,50.036 		"/>
        <polygon fill="#FFFFFF" points="243.767,52.197 243.809,53.733 244.613,53.733 244.613,52.197 		"/>
        <polygon fill="#FFFFFF" points="246.166,50.243 246.833,50.597 246.606,52.167 246.02,51.988 		"/>
        <polygon fill="#FFFFFF" points="245.992,52.283 246.573,52.463 246.44,53.823 245.931,53.763 		"/>
        <polygon fill="#FFFFFF" points="245.914,49.829 246.228,47.521 244.865,47.314 244.865,49.771 		"/>
        <polygon fill="#FFFFFF" points="247.366,48.202 246.884,50.304 246.176,49.917 246.482,47.642 		"/>
        <polygon fill="#FFFFFF" points="245.888,50.096 245.747,51.898 244.865,51.898 244.865,50.036 		"/>
        <polygon fill="#FFFFFF" points="245.715,52.197 245.672,53.733 244.865,53.733 244.865,52.197 		"/>
        <path fill="#FFFFFF" d="M243.328,68.553l-0.458,0.445h3.735l-0.47-0.445h-0.028c0-0.088,0-0.088,0-0.117
			c0-0.678,0.192-0.919,0.302-1.033V54.088l-0.495-0.03v14.495h-0.532c0-0.06,0-0.146,0-0.236c0-0.531,0.129-0.827,0.267-0.976
			l-0.008-13.312h-0.776v13.285c0.156,0.175,0.313,0.443,0.313,1.031c0,0.09,0,0.148,0,0.207h-0.873c0-0.059,0-0.117,0-0.207
			c0-0.588,0.153-0.856,0.307-1.031l-0.014-13.285h-0.762l-0.004,13.312c0.136,0.147,0.266,0.444,0.266,0.976
			c0,0.09,0,0.177,0,0.236h-0.547V54.058l-0.497,0.03v13.314c0.111,0.114,0.303,0.355,0.303,1.033c0,0.029,0,0.029,0,0.117H243.328z
			"/>
        <g>
			<path fill="#FFFFFF" d="M248.371,66.542c0,0-0.094,0.09-0.237,0.357c0,0,0.739,0.561,0.716,1.922
				C248.85,68.821,249.222,67.371,248.371,66.542z"/>
            <g>
				<path fill="#FFFFFF" d="M251.06,66.571c0,0.092-0.029,0.24-0.311,0.24c-0.299,0-0.316-0.297-0.316-0.297
					c-0.089,0.208-0.201,0.297-0.378,0.264c-0.181,0.033-0.292-0.207-0.353-0.236l-0.072,0.09c-0.029,0.061-0.074,0.075-0.161,0.234
					c0,0,0.734,0.594,0.72,1.956c0,0,0.227-0.919-0.097-1.716c0.356,0,0.339-0.268,0.339-0.268s0.032,0.236,0.348,0.236
					C251.083,67.074,251.076,66.688,251.06,66.571z"/>
                <path fill="#FFFFFF" d="M251.06,66.514c0,0,0,0.028,0,0.058C251.06,66.542,251.06,66.514,251.06,66.514z"/>
			</g>
            <g>
				<path fill="#FFFFFF" d="M254.589,66.571c0,0.092-0.038,0.24-0.311,0.24c-0.303,0-0.318-0.27-0.318-0.27
					c-0.091,0.208-0.208,0.27-0.375,0.27c-0.184,0-0.295-0.212-0.357-0.27l-0.071,0.127c-0.046,0.056-0.083,0.092-0.16,0.23
					c0,0,0.735,0.561,0.72,1.922c0,0,0.223-0.889-0.097-1.687c0.355,0,0.34-0.297,0.34-0.297s0.029,0.236,0.348,0.236
					C254.604,67.074,254.604,66.723,254.589,66.571z"/>
                <path fill="#FFFFFF"
                      d="M254.579,66.542c0,0,0.009,0,0.009,0.029C254.589,66.542,254.579,66.542,254.579,66.542z"/>
			</g>
            <path fill="#FFFFFF" d="M252.032,66.571c0,0-0.044,1.005-0.772,1.864l0.177,0.416c0,0,0.595-0.711,0.595-1.658
				c0,0,0.101,1.094,0.751,1.658l0.105-0.416C252.192,67.697,252.032,66.571,252.032,66.571z"/>
		</g>
        <g>
			<path fill="#FFFFFF" d="M236.341,67.576c-0.051-0.06-0.08-0.175-0.08-0.294c0-0.176,0.042-0.297,0.125-0.355
				c0.058-0.061,0.125-0.061,0.199-0.061c0.105,0,0.195,0.033,0.254,0.119c0.057,0.061,0.087,0.18,0.087,0.297
				c0,0.147-0.052,0.269-0.146,0.354c-0.061,0.033-0.121,0.033-0.181,0.033C236.483,67.669,236.399,67.636,236.341,67.576z
				 M236.007,67.846c0.149,0.148,0.312,0.205,0.487,0.205c0.128,0,0.229-0.028,0.319-0.088c0.045-0.03,0.09-0.061,0.127-0.117
				c-0.008,0.177-0.022,0.325-0.061,0.413c-0.057,0.147-0.161,0.234-0.309,0.234c-0.083,0-0.141-0.028-0.193-0.058
				c-0.045-0.029-0.076-0.091-0.082-0.177h-0.45c0.022,0.206,0.095,0.354,0.235,0.441c0.142,0.121,0.297,0.18,0.468,0.18
				c0.361,0,0.606-0.18,0.746-0.535c0.067-0.205,0.103-0.412,0.103-0.709c0-0.294-0.036-0.501-0.11-0.678
				c-0.132-0.326-0.371-0.475-0.717-0.475c-0.23,0-0.416,0.088-0.557,0.239c-0.146,0.144-0.213,0.352-0.213,0.591
				C235.802,67.551,235.869,67.726,236.007,67.846z"/>
            <path fill="#FFFFFF" d="M239.737,68.11h0.443c0,0.089,0.015,0.177,0.042,0.234c0.061,0.091,0.157,0.148,0.306,0.148
				c0.09,0,0.162-0.028,0.227-0.087c0.067-0.062,0.104-0.147,0.104-0.266c0-0.146-0.067-0.239-0.183-0.295
				c-0.076-0.031-0.188-0.031-0.333-0.031v-0.325c0.146,0,0.25-0.029,0.309-0.06c0.097-0.027,0.149-0.115,0.149-0.265
				c0-0.091-0.028-0.15-0.074-0.207c-0.051-0.059-0.127-0.092-0.223-0.092c-0.103,0-0.183,0.033-0.235,0.092
				c-0.046,0.088-0.073,0.177-0.069,0.293h-0.42c0-0.116,0.023-0.236,0.053-0.324c0.037-0.089,0.096-0.177,0.176-0.264
				c0.058-0.063,0.132-0.092,0.213-0.121c0.083-0.027,0.179-0.027,0.297-0.027c0.22,0,0.4,0.027,0.532,0.148
				c0.133,0.115,0.208,0.264,0.208,0.473c0,0.116-0.043,0.236-0.125,0.324c-0.052,0.058-0.105,0.116-0.156,0.116
				c0.035,0,0.095,0.06,0.179,0.122c0.111,0.117,0.169,0.266,0.169,0.442s-0.066,0.354-0.201,0.501
				c-0.131,0.148-0.332,0.239-0.596,0.239c-0.328,0-0.557-0.121-0.68-0.327C239.78,68.436,239.743,68.287,239.737,68.11z"/>
            <path fill="#FFFFFF" d="M238.355,67.758c0.057-0.061,0.124-0.09,0.197-0.09c0.098,0,0.179,0.058,0.244,0.117
				c0.067,0.061,0.099,0.178,0.099,0.295c0,0.118-0.031,0.236-0.083,0.293c-0.059,0.091-0.14,0.12-0.245,0.12
				c-0.095,0-0.183-0.029-0.249-0.12c-0.068-0.057-0.097-0.175-0.097-0.293C238.22,67.933,238.263,67.814,238.355,67.758z
				 M239.093,66.662c-0.132-0.12-0.302-0.179-0.51-0.179c-0.147,0-0.283,0.03-0.384,0.088c-0.104,0.092-0.194,0.179-0.261,0.295
				c-0.071,0.119-0.125,0.269-0.152,0.476c-0.016,0.118-0.024,0.266-0.024,0.443c0,0.295,0.051,0.531,0.163,0.708
				c0.133,0.267,0.348,0.388,0.642,0.388c0.268,0,0.467-0.091,0.594-0.268c0.129-0.148,0.192-0.354,0.192-0.562
				c0-0.205-0.067-0.382-0.192-0.534c-0.134-0.146-0.304-0.203-0.503-0.203c-0.098,0-0.187,0.028-0.261,0.058
				c-0.073,0.031-0.133,0.059-0.192,0.146c0.017-0.175,0.038-0.323,0.067-0.41c0.066-0.18,0.17-0.24,0.318-0.24
				c0.096,0,0.17,0.033,0.221,0.092c0.029,0.057,0.045,0.088,0.045,0.116h0.451C239.285,66.899,239.218,66.75,239.093,66.662z"/>
            <path fill="#FFFFFF" d="M235.551,68.465h-0.28v-1.894h-0.372c0,0.027-0.007,0.061-0.022,0.092
				c-0.021,0.06-0.052,0.115-0.089,0.175c-0.057,0.062-0.133,0.089-0.221,0.12c-0.021,0-0.058,0-0.097,0v0.324h0.341v1.183h-0.333
				v0.387h1.072V68.465z"/>
		</g>
        <path fill="#FFFFFF" d="M252.669,75.031l-2.554-0.623l2.15-0.176l-1.728-3.549c-1.917,0.564-3.53-0.592-4.149-0.679
			c-0.739-0.12-1.167,0.178-1.735,0.65c-0.521-0.563-1.221-0.857-1.946-0.65c-1.316,0.264-2.115,1.063-3.997,0.621l-1.673,3.46
			l2.203,0.355l-2.572,0.385l-0.616,1.213l7.638-1.008c0.179,0.267,0.563,0.593,0.963,0.563c0.323-0.06,0.637-0.235,0.811-0.533
			l7.825,1.036L252.669,75.031z M244.621,75.002c-0.301-0.029-0.441-0.354-0.437-0.385c-0.034-0.324,0.348-1.302,0.437-1.774
			c0.086,0.473,0.48,1.48,0.416,1.774C245.042,74.648,244.926,74.973,244.621,75.002z"/>
	</g>
</g>
</svg>
